<svg xmlns="http://www.w3.org/2000/svg" width="520" height="520" viewBox="-10 185 540 540"><defs><clipPath id="a"><path d="M27.152 220.191H492v461.66H27.152Zm0 0"/></clipPath><clipPath id="b"><path d="M491.156 295.191v311.66a75 75 0 0 1-21.965 53.032 75 75 0 0 1-53.035 21.969H102.152a75 75 0 0 1-53.035-21.97 75 75 0 0 1-21.965-53.03v-311.66a75.02 75.02 0 0 1 21.965-53.036 75.02 75.02 0 0 1 53.035-21.965h314.004a75.02 75.02 0 0 1 53.035 21.965 75.02 75.02 0 0 1 21.965 53.035m0 0"/></clipPath><clipPath id="d"><path d="M.152.191H464v461.66H.152Zm0 0"/></clipPath><clipPath id="e"><path d="M464.156 75.191v311.66a75 75 0 0 1-21.965 53.032 75 75 0 0 1-53.035 21.969H75.152a75 75 0 0 1-53.035-21.97 75 75 0 0 1-21.965-53.03V75.192a75.02 75.02 0 0 1 21.965-53.036A75.02 75.02 0 0 1 75.152.191h314.004a75.02 75.02 0 0 1 53.035 21.965 75.02 75.02 0 0 1 21.965 53.035m0 0"/></clipPath><clipPath id="c"><path d="M0 0h465v462H0z"/></clipPath><clipPath id="f"><path d="M150 358.074h205v186.29H150Zm0 0"/></clipPath><clipPath id="g"><path d="M188.473 358.8H316.66a38.253 38.253 0 0 1 38.25 38.25v109.063a38.253 38.253 0 0 1-38.25 38.25H188.473a38.24 38.24 0 0 1-27.047-11.203 38.24 38.24 0 0 1-11.203-27.047V397.051a38.253 38.253 0 0 1 38.25-38.25m0 0"/></clipPath><clipPath id="i"><path d="M0 .8h204.96v185.563H0Zm0 0"/></clipPath><clipPath id="j"><path d="M38.473.8H166.66a38.253 38.253 0 0 1 38.25 38.25v109.063a38.253 38.253 0 0 1-38.25 38.25H38.473a38.24 38.24 0 0 1-27.047-11.203A38.24 38.24 0 0 1 .223 148.113V39.051A38.253 38.253 0 0 1 38.473.8m0 0"/></clipPath><clipPath id="h"><path d="M0 0h205v187H0z"/></clipPath><clipPath id="k"><path d="M161.46 373.121h179.731v154.922h-179.73Zm0 0"/></clipPath><clipPath id="l"><path d="M199.71 373.121h103.13a38.253 38.253 0 0 1 38.25 38.25v78.422a38.253 38.253 0 0 1-38.25 38.25H199.71a38.253 38.253 0 0 1-38.25-38.25v-78.422a38.253 38.253 0 0 1 38.25-38.25m0 0"/></clipPath><clipPath id="n"><path d="M.46.121h179.731v154.922H.461Zm0 0"/></clipPath><clipPath id="o"><path d="M38.71.121h103.13a38.253 38.253 0 0 1 38.25 38.25v78.422a38.253 38.253 0 0 1-38.25 38.25H38.71a38.253 38.253 0 0 1-38.25-38.25V38.371A38.253 38.253 0 0 1 38.71.121m0 0"/></clipPath><clipPath id="m"><path d="M0 0h181v156H0z"/></clipPath><clipPath id="p"><path d="M163.09 381.555H338v142.258H163.09Zm0 0"/></clipPath><clipPath id="q"><path d="M226.46 382.438a1.017 1.017 0 0 0 .657 1.183l3.313 1.145c1.093.379 3.242 1.445 4.226 2.097l1 .664c.512.34 1.38 1.13 1.778 1.621l1.41 1.735c.742.91 1.793 2.75 2.219 3.883l1.105 2.93a.6.6 0 0 1-.016.449l-.101.218a1.9 1.9 0 0 1-.574.711l-3.211 2.301c-1.782 1.277-4.137 3.879-5.29 5.852l-1.16 1.984c-.605 1.039-1.406 3.074-1.675 4.277l-.344 1.508c-.168.742-.34 2.293-.34 3.063v1.21c0 .602.137 1.813.266 2.391l.336 1.48a4.7 4.7 0 0 1 0 1.77l-.102.442a.22.22 0 0 1-.164.168.23.23 0 0 1-.223-.075l-2.011-2.43c-1.204-1.452-2.442-3.945-2.899-5.847l-.398-1.66c-.207-.848-.801-2.375-1.215-3.121l-1.192-2.145c-.593-1.066-2.02-3.02-2.835-3.887l-6.567-6.98c-1.047-1.11-2.781-2.172-4.183-2.559l-1.934-.535a.564.564 0 0 0-.664.313c-.05.11-.05.234.004.344.05.109.148.187.265.214l2.024.5c.66.16 1.426.625 1.902 1.157l.403.441c.218.242.492.703.609 1.023l.293.817c.148.402.531 1.172.766 1.523l1.964 2.961c1.082 1.633 2.293 4.574 2.7 6.551l.824 4.023c.21 1.012.86 3.168 1.238 4.114l.399.996c.218.547.726 1.332 1.117 1.742l11.738 12.176a.72.72 0 0 1 .14.793.39.39 0 0 1-.253.207.36.36 0 0 1-.317-.082l-4.027-3.442c-1.957-1.672-7.04-5.535-9.152-6.953l-3.22-2.164c-1.44-.969-5.12-3.12-6.651-3.89l-4.883-2.457c-2.285-1.149-7.645-3.243-10.075-3.938l-4.316-1.23a21.4 21.4 0 0 0-5.883-.825h-4.086c-1.472 0-4.293.438-5.71.883l-1.4.442c-.706.226-2.007.867-2.632 1.296l-.98.68c-.504.348-1.356 1.152-1.746 1.645l-1.02 1.285c-.547.695-1.262 2.031-1.543 2.898l-.535 1.63c-.285.862-.54 2.44-.54 3.362v2.891c0 1.527.415 4.184.872 5.625l.766 2.395c.414 1.296 1.457 3.273 2.277 4.308l2.043 2.582c1.074 1.363 3.316 3.38 4.742 4.266l1.848 1.152c.937.582 2.863 1.414 3.91 1.684l2.367.617a3.164 3.164 0 0 1 2.367 3.062v3.442c0 .644.184 1.7.399 2.297l.199.554c.105.282.367.778.539 1.016l.629.875c.355.488 1.031 1.094 1.535 1.375l1.547.856c.851.468 2.324.902 3.277.96l2.735.168c1.367.082 4.074-.14 5.414-.449l3.457-.797c1.605-.37 5.222-1.554 6.75-2.207l4.55-1.949c2.094-.898 6.836-3.406 8.778-4.644l8.406-5.356a.362.362 0 0 1 .559.309c0 .425-.168.832-.465 1.132l-1.735 1.743c-1.02 1.023-3.535 3.168-4.69 3.996l-2.153 1.543c-.953.683-3.426 2.246-4.442 2.804l-4.523 2.504c-1.45.801-3.832 2.703-4.98 3.973l-1.376 1.52c-.406.453-1.125 1.472-1.421 2.019l-.301.55a6 6 0 0 1-.723.997l-5.078 5.308c-.856.895-2.29 2.868-2.895 3.985l-.597 1.105c-.324.598-.692 1.692-.793 2.38l-.117.788a.5.5 0 0 0 .117.41c.097.118.242.18.39.18a.7.7 0 0 0 .692-.59l.144-.972c.094-.625.422-1.47.766-1.977l.297-.441c.168-.246.496-.563.738-.711l10.055-6.145c2.383-1.457 6.574-4.949 8.5-7.078l1.898-2.101c.895-.993 3.07-2.993 4.114-3.786l3.46-2.632a.58.58 0 0 1 .922.332l.059.273c.09.395.035.809-.16 1.168l-.301.55c-.3.56-.75 1.723-.906 2.352l-.446 1.809c-.265 1.082-.949 2.324-1.69 3.086l-2.567 2.621c-.696.71-1.883 2.297-2.387 3.184l-.5.886a13 13 0 0 0-.797 1.871l-.648 2.16c-.34 1.13-.653 3.25-.653 4.438v5.832c0 1.438-.308 4.426-.597 5.828l-.313 1.492c-.164.778-.637 1.864-1.09 2.489l-.398.55a1.78 1.78 0 0 1-1.028.696l-.898.195a.97.97 0 0 0-.672.55l-.07.15a.32.32 0 0 0-.004.238.3.3 0 0 0 .172.164l.3.109a1.6 1.6 0 0 0 1.188-.035l.707-.313c.399-.18.922-.586 1.211-.941l1.344-1.68c.719-.89 1.691-2.652 2.082-3.765l1.031-2.938c.54-1.527 1.102-4.441 1.176-6.082l.133-2.933c.07-1.56.648-3.829 1.324-5.2l.601-1.218a.32.32 0 0 1 .356-.168c.14.035.242.16.242.308v1.961c0 1.488.207 5.133.371 6.61l.414 3.664c.2 1.765.985 5.468 1.516 7.148l.848 2.68c.41 1.293 1.543 3.937 2.187 5.109l1.531 2.766c.786 1.422 2.598 3.816 3.727 4.918l2.3 2.246c1.106 1.078 3.684 3.105 4.97 3.906l2.238 1.39c.683.426 2.351 1.286 3.086 1.59l.8.332c.426.18 1.2.332 1.653.332h.574c.316 0 .805-.113 1.094-.257l4.699-2.309c.922-.453 2.937-1.68 3.773-2.3l.903-.66a20 20 0 0 0 1.687-1.481l2.606-2.692c1.308-1.351 3.523-4.355 4.457-6.05l1.273-2.301c.61-1.106 1.692-3.617 2.078-4.84l.797-2.492c.371-1.164 1-3.875 1.184-5.09l.406-2.68c.18-1.195.469-4.187.523-5.394l.27-5.907c0-.05.027-.093.07-.117a.15.15 0 0 1 .14 0l.2.11c.246.136.477.39.598.664l.5 1.105c.27.602.543 1.672.594 2.34l.476 6.312c.117 1.563.723 4.489 1.23 5.95l.5 1.437c.258.742.919 2.02 1.368 2.64l1.492 2.063c.469.645 1.367 1.45 2.035 1.82l.64.356c.356.195.778.227 1.16.086a.376.376 0 0 0 .113-.637l-1.764-1.52c-.801-.687-1.59-1.878-1.946-2.929l-.3-.883a7 7 0 0 1-.301-1.832v-6.91c0-1.8-.403-5.437-.797-7.187l-.403-1.77c-.207-.922-.824-2.504-1.285-3.309l-.957-1.664c-.476-.832-1.613-2.328-2.27-2.996l-1.741-1.765c-1.051-1.067-1.97-2.774-2.313-4.305l-.344-1.52c-.144-.64-.578-1.789-.882-2.355l-.301-.555a1.5 1.5 0 0 1-.117-1.156l.015-.059a.48.48 0 0 1 .309-.312.46.46 0 0 1 .43.082l2.46 2c1.38 1.117 4.418 4.004 5.63 5.34l2.683 2.969c1.379 1.527 4.316 3.925 6.039 4.93l10.035 5.863c.516.3 1.39 1.015 1.8 1.468l.4.442c.238.261.456.691.538 1.05l.52 2.31c.09.386.367.706.742.843a.392.392 0 0 0 .527-.414l-.128-1.133c-.11-.992-.575-2.438-1.055-3.285l-.57-1.012c-.286-.504-.97-1.426-1.36-1.832l-4.96-5.168c-.512-.531-1.458-1.773-1.848-2.418l-.403-.664c-.187-.316-.664-.96-.906-1.227l-3.25-3.597c-1.004-1.11-2.93-2.535-4.238-3.14l-1.2-.552a27 27 0 0 1-2.316-1.285l-6.758-4.433c-1.449-.95-4.129-3.25-5.32-4.567l-1.969-2.183a.42.42 0 0 1-.097-.391.42.42 0 0 1 .27-.305c.37-.136.788-.066 1.093.184l2.504 2.031c1.398 1.133 4.773 3.414 6.324 4.274l2.336 1.289c1.035.574 3.7 1.851 4.781 2.297l4.176 1.71c1.91.786 6.531 2.254 8.527 2.715l2.621.602c1.309.305 3.953.523 5.29.441l3.003-.183c.809-.051 2.18-.407 2.922-.758l.7-.332c.378-.18.945-.606 1.238-.93l.93-1.027c.484-.535 1.21-1.652 1.519-2.332l.305-.676a4.1 4.1 0 0 0 .304-1.434v-5.347c0-.817.594-1.508 1.399-1.637l1.402-.223c1.426-.222 4.055-1.082 5.363-1.753l1.317-.668c.668-.344 1.851-1.192 2.406-1.73l3.55-3.438c.91-.88 2.333-2.766 2.954-3.91l.601-1.106c.29-.54.79-1.738.97-2.332l.613-2.043c.32-1.063.617-3.07.617-4.195v-4.02c0-1.488-.446-3.754-1-5.11l-.5-1.214c-.266-.649-.899-1.656-1.356-2.16l-.972-1.078c-.485-.54-1.567-1.454-2.164-1.829l-.805-.507a10.6 10.6 0 0 0-1.684-.809l-2.156-.734a12.4 12.4 0 0 0-4.434-.657l-5.332.184c-2.554.09-7.718.965-10.183 1.727l-2.5.777c-1.13.348-3.805 1.394-4.883 1.902l-3.004 1.426c-1.32.625-4.613 2.406-5.871 3.172l-4.363 2.668c-1.942 1.183-6.63 4.437-8.434 5.855l-5.023 3.934a1.15 1.15 0 0 1-1.106.176.4.4 0 0 1-.254-.297.41.41 0 0 1 .114-.371l4.207-4.11c.988-.964 3.097-3.386 3.93-4.515l.902-1.215c.46-.629 1.152-1.922 1.425-2.676l.536-1.484c.25-.684.703-2.317.847-3.04l.645-3.202c.34-1.684 1.383-4.524 2.203-5.993l3.043-5.437c.289-.52 1.004-1.516 1.394-1.945l.399-.446c.25-.277.61-.465.96-.511l2.598-.317a.505.505 0 0 0 .442-.496.64.64 0 0 0-.418-.598l-.184-.066a1.8 1.8 0 0 0-1.207-.02l-1.39.461c-1.141.38-2.649 1.348-3.508 2.262l-5.723 6.055c-.922.976-2.812 3.37-3.562 4.512l-.801 1.218c-.422.64-.985 1.899-1.192 2.657l-1.277 4.71c-.422 1.56-1.488 3.54-2.527 4.688l-1.371 1.516a.94.94 0 0 1-1.028.253.705.705 0 0 1-.441-.84l.238-.929c.203-.785.402-2.344.402-3.16v-1.848c0-.914-.207-2.758-.406-3.644l-.398-1.758c-.192-.852-.774-2.59-1.13-3.375l-.433-.961c-.218-.485-.754-1.352-1.086-1.754l-1.671-2.035c-.856-1.04-2.715-2.73-3.805-3.453l-2.797-1.856a1.68 1.68 0 0 1-.668-1.926l.398-1.218c.422-1.282 1.504-3.38 2.282-4.434l1.058-1.433c.551-.743 1.735-1.907 2.469-2.422l1.496-1.055c.746-.527 2.336-1.344 3.184-1.637l4.246-1.469c.293-.101.531-.316.66-.601a.75.75 0 0 0-.125-.8l-.074-.083a.93.93 0 0 0-.969-.262l-2.23.704c-1.38.437-4.083 1.695-5.329 2.484l-1.535.969c-.797.507-2.101 1.668-2.715 2.425l-1.207 1.485c-.644.789-1.523 2.355-1.879 3.34l-.898 2.488a2.88 2.88 0 0 1-3.23 1.851 16.7 16.7 0 0 0-4.825-.175l-5.273.586a.58.58 0 0 1-.496-.192l-.2-.219a3.1 3.1 0 0 1-.578-1.035l-.71-2.36c-.395-1.304-1.387-3.179-2.223-4.194l-1.242-1.516c-.645-.785-2.016-2-2.848-2.527l-1.996-1.262c-.984-.621-3.117-1.617-4.207-1.961l-2.524-.797a.834.834 0 0 0-1.062.61m0 0"/></clipPath><clipPath id="s"><path d="M.09.602h174.832V142.68H.09Zm0 0"/></clipPath><clipPath id="t"><path d="M63.46 1.438a1.017 1.017 0 0 0 .657 1.183l3.313 1.145c1.093.379 3.242 1.445 4.226 2.097l1 .664c.512.34 1.38 1.13 1.778 1.621l1.41 1.735c.742.91 1.793 2.75 2.219 3.883l1.105 2.93a.6.6 0 0 1-.016.449l-.101.218a1.9 1.9 0 0 1-.574.711l-3.211 2.301c-1.782 1.277-4.137 3.879-5.29 5.852l-1.16 1.984c-.605 1.039-1.406 3.074-1.675 4.277l-.344 1.508c-.168.742-.34 2.293-.34 3.063v1.21c0 .602.137 1.813.266 2.391l.336 1.48a4.7 4.7 0 0 1 0 1.77l-.102.442a.22.22 0 0 1-.164.168.23.23 0 0 1-.223-.075l-2.011-2.43c-1.204-1.453-2.442-3.945-2.899-5.847l-.398-1.66c-.207-.848-.801-2.375-1.215-3.121l-1.192-2.145c-.593-1.066-2.02-3.02-2.835-3.887l-6.567-6.98c-1.047-1.11-2.781-2.172-4.183-2.559l-1.934-.535a.564.564 0 0 0-.664.313c-.05.11-.05.234.004.344.05.109.148.187.265.214l2.024.5c.66.16 1.426.625 1.902 1.157l.403.441c.218.242.492.703.609 1.023l.293.817c.148.402.531 1.172.766 1.523l1.964 2.961c1.082 1.633 2.293 4.574 2.7 6.551l.824 4.023c.21 1.012.86 3.168 1.238 4.114l.398.996c.22.547.727 1.332 1.118 1.742l11.738 12.176a.72.72 0 0 1 .14.793.39.39 0 0 1-.253.207.36.36 0 0 1-.317-.082l-4.027-3.442c-1.957-1.672-7.04-5.535-9.152-6.953l-3.22-2.164c-1.44-.969-5.12-3.12-6.651-3.89l-4.883-2.458C38.27 35.04 32.91 32.946 30.48 32.25l-4.316-1.23a21.4 21.4 0 0 0-5.883-.825h-4.086c-1.472 0-4.293.438-5.71.883l-1.4.442c-.706.226-2.007.867-2.632 1.296l-.98.68c-.504.348-1.356 1.152-1.746 1.645l-1.02 1.285c-.547.695-1.262 2.031-1.543 2.898l-.535 1.63c-.285.862-.54 2.44-.54 3.362v2.891c0 1.527.415 4.184.872 5.625l.766 2.395c.414 1.296 1.457 3.273 2.277 4.308l2.043 2.582c1.074 1.363 3.316 3.38 4.742 4.266l1.848 1.152c.937.582 2.863 1.414 3.91 1.684l2.367.617a3.164 3.164 0 0 1 2.367 3.062v3.442c0 .644.184 1.7.399 2.297l.199.554c.105.282.367.778.539 1.016l.629.875c.355.488 1.031 1.094 1.535 1.375l1.547.856c.851.468 2.324.902 3.277.96l2.735.168c1.367.082 4.074-.14 5.414-.449l3.457-.797c1.605-.37 5.222-1.554 6.75-2.207l4.55-1.949c2.094-.898 6.836-3.406 8.778-4.644l8.406-5.356a.362.362 0 0 1 .559.309c0 .425-.168.832-.465 1.132l-1.735 1.743c-1.02 1.023-3.535 3.168-4.69 3.996l-2.153 1.543c-.953.683-3.426 2.246-4.442 2.804l-4.523 2.504c-1.45.801-3.832 2.703-4.98 3.973l-1.376 1.52c-.406.453-1.125 1.472-1.421 2.019l-.301.55a6 6 0 0 1-.723.997l-5.078 5.308c-.855.895-2.29 2.868-2.895 3.985l-.597 1.105c-.324.598-.692 1.692-.793 2.38l-.117.788a.5.5 0 0 0 .117.41c.097.118.242.18.39.18a.7.7 0 0 0 .692-.59l.144-.972c.094-.625.422-1.47.766-1.977l.297-.441c.168-.246.496-.563.738-.711l10.055-6.145c2.383-1.457 6.574-4.949 8.5-7.078l1.898-2.101c.895-.993 3.07-2.993 4.114-3.786l3.46-2.632a.58.58 0 0 1 .922.332l.059.273c.09.395.035.809-.16 1.168l-.301.55c-.3.56-.75 1.723-.906 2.352l-.446 1.809c-.265 1.082-.949 2.324-1.69 3.086l-2.567 2.621c-.696.71-1.883 2.297-2.387 3.184l-.5.886a13 13 0 0 0-.797 1.871l-.648 2.16c-.34 1.13-.653 3.25-.653 4.438v5.832c0 1.438-.308 4.426-.597 5.828l-.313 1.492c-.164.778-.637 1.864-1.09 2.489l-.398.55a1.78 1.78 0 0 1-1.028.696l-.898.195a.97.97 0 0 0-.672.55l-.07.15a.32.32 0 0 0-.004.238.3.3 0 0 0 .172.164l.3.109a1.6 1.6 0 0 0 1.188-.035l.707-.313c.399-.18.922-.586 1.211-.941l1.344-1.68c.719-.89 1.691-2.652 2.082-3.765l1.031-2.938c.54-1.527 1.102-4.441 1.176-6.082l.133-2.933c.07-1.56.648-3.829 1.324-5.2l.602-1.218a.32.32 0 0 1 .355-.168c.14.035.242.16.242.308v1.961c0 1.488.207 5.133.371 6.61l.414 3.664c.2 1.765.985 5.468 1.516 7.148l.848 2.68c.41 1.293 1.543 3.937 2.187 5.109l1.531 2.766c.785 1.422 2.598 3.816 3.727 4.918l2.3 2.246c1.106 1.078 3.684 3.105 4.97 3.906l2.238 1.39c.683.426 2.351 1.286 3.086 1.59l.8.332c.426.18 1.2.333 1.653.333h.574c.316 0 .805-.114 1.094-.258l4.699-2.309c.922-.453 2.937-1.68 3.773-2.3l.903-.66a20 20 0 0 0 1.687-1.481l2.606-2.692c1.308-1.351 3.523-4.355 4.457-6.05l1.273-2.301c.61-1.106 1.692-3.617 2.078-4.84l.797-2.492c.371-1.164 1-3.875 1.184-5.09l.406-2.68c.18-1.195.469-4.187.523-5.394l.27-5.907c0-.05.027-.093.07-.117a.15.15 0 0 1 .14 0l.2.11c.246.136.477.39.598.664l.5 1.105c.27.602.543 1.672.594 2.34l.476 6.312c.117 1.563.723 4.489 1.23 5.95l.5 1.437c.258.742.919 2.02 1.368 2.64l1.492 2.063c.469.645 1.367 1.45 2.035 1.82l.64.356c.356.195.778.227 1.16.086a.376.376 0 0 0 .113-.637l-1.764-1.52c-.801-.687-1.59-1.878-1.946-2.929l-.3-.883a7 7 0 0 1-.301-1.832v-6.91c0-1.8-.403-5.437-.797-7.187l-.403-1.77c-.207-.922-.824-2.504-1.285-3.309l-.957-1.664c-.476-.832-1.613-2.328-2.27-2.996l-1.741-1.765c-1.051-1.067-1.97-2.774-2.313-4.305l-.344-1.52c-.144-.64-.578-1.789-.882-2.355l-.301-.555a1.5 1.5 0 0 1-.117-1.156l.015-.059a.48.48 0 0 1 .309-.312.46.46 0 0 1 .43.082l2.46 2c1.38 1.117 4.418 4.004 5.63 5.34l2.683 2.969c1.379 1.527 4.316 3.925 6.039 4.93l10.035 5.863c.516.3 1.39 1.015 1.8 1.468l.4.442c.238.261.456.691.538 1.05l.52 2.31c.09.386.367.706.742.843a.392.392 0 0 0 .527-.414l-.128-1.133c-.11-.992-.575-2.438-1.055-3.285l-.57-1.012c-.286-.504-.97-1.426-1.36-1.832l-4.96-5.168c-.512-.531-1.458-1.773-1.848-2.418l-.403-.664c-.187-.316-.664-.96-.906-1.227l-3.25-3.597c-1.004-1.11-2.93-2.535-4.238-3.14l-1.2-.552a27 27 0 0 1-2.316-1.285l-6.758-4.433c-1.449-.95-4.129-3.25-5.32-4.567l-1.969-2.183a.42.42 0 0 1-.097-.391.42.42 0 0 1 .27-.305c.37-.136.788-.066 1.093.184l2.504 2.031c1.398 1.133 4.773 3.414 6.324 4.274l2.336 1.289c1.035.574 3.7 1.851 4.781 2.297l4.176 1.71c1.91.786 6.531 2.254 8.527 2.715l2.621.602c1.309.305 3.953.523 5.29.441l3.003-.183c.809-.051 2.18-.407 2.922-.758l.7-.332c.378-.18.945-.606 1.238-.93l.93-1.027c.484-.535 1.21-1.653 1.519-2.332l.305-.676a4.1 4.1 0 0 0 .304-1.434v-5.347c0-.817.594-1.508 1.399-1.637l1.402-.223c1.426-.222 4.055-1.082 5.363-1.754l1.317-.667c.668-.344 1.851-1.192 2.406-1.73l3.55-3.438c.91-.88 2.333-2.766 2.954-3.91l.601-1.106c.29-.54.79-1.738.97-2.332l.613-2.043c.32-1.063.617-3.07.617-4.195v-4.02c0-1.488-.446-3.754-1-5.11l-.5-1.214c-.266-.649-.899-1.656-1.356-2.16l-.972-1.078c-.485-.54-1.567-1.454-2.165-1.829l-.804-.507a10.6 10.6 0 0 0-1.684-.809l-2.156-.734a12.4 12.4 0 0 0-4.434-.657l-5.332.184c-2.554.09-7.718.965-10.183 1.727l-2.5.777c-1.13.348-3.805 1.394-4.883 1.902l-3.004 1.426c-1.32.625-4.613 2.406-5.871 3.172l-4.363 2.668c-1.942 1.184-6.63 4.437-8.434 5.855l-5.023 3.934a1.15 1.15 0 0 1-1.106.176.4.4 0 0 1-.254-.297.41.41 0 0 1 .114-.371l4.207-4.11c.988-.964 3.097-3.386 3.93-4.515l.902-1.215c.46-.629 1.152-1.922 1.425-2.676l.536-1.484c.25-.684.703-2.317.847-3.04l.645-3.202c.34-1.684 1.383-4.524 2.203-5.993l3.043-5.437c.289-.52 1.004-1.516 1.394-1.945l.399-.446c.25-.277.61-.465.96-.511l2.598-.317a.505.505 0 0 0 .442-.496.64.64 0 0 0-.418-.598l-.184-.066a1.8 1.8 0 0 0-1.207-.02l-1.39.461c-1.141.38-2.649 1.348-3.508 2.262l-5.723 6.055c-.922.976-2.812 3.37-3.562 4.512l-.801 1.218c-.422.64-.985 1.899-1.192 2.657l-1.277 4.71c-.422 1.56-1.488 3.54-2.527 4.688l-1.371 1.516a.94.94 0 0 1-1.028.254.705.705 0 0 1-.441-.84l.238-.93c.203-.785.403-2.344.403-3.16V36.91c0-.914-.208-2.758-.407-3.644l-.398-1.758c-.192-.852-.774-2.59-1.13-3.375l-.433-.961c-.218-.485-.754-1.352-1.086-1.754l-1.671-2.035c-.856-1.04-2.715-2.73-3.805-3.453l-2.797-1.856a1.68 1.68 0 0 1-.668-1.926l.398-1.218c.422-1.282 1.504-3.38 2.282-4.434l1.058-1.434c.551-.742 1.735-1.906 2.469-2.421l1.496-1.055c.746-.527 2.336-1.344 3.184-1.637l4.246-1.469c.293-.101.531-.316.66-.601a.75.75 0 0 0-.125-.8l-.074-.083a.93.93 0 0 0-.969-.262l-2.23.704c-1.38.437-4.083 1.695-5.329 2.484l-1.535.969c-.797.507-2.101 1.668-2.715 2.425l-1.207 1.485c-.644.789-1.523 2.355-1.879 3.34l-.898 2.488a2.88 2.88 0 0 1-3.23 1.851 16.7 16.7 0 0 0-4.825-.175l-5.273.586a.58.58 0 0 1-.496-.192l-.2-.219a3.1 3.1 0 0 1-.578-1.035l-.71-2.36c-.395-1.304-1.387-3.179-2.223-4.194l-1.242-1.516c-.645-.785-2.016-2-2.848-2.527l-1.996-1.262c-.984-.621-3.117-1.617-4.207-1.961L64.523.828a.834.834 0 0 0-1.062.61m0 0"/></clipPath><clipPath id="r"><path d="M0 0h175v143H0z"/></clipPath></defs><g clip-path="url(#a)"><g clip-path="url(#b)"><g clip-path="url(#c)" transform="translate(27 220)"><g clip-path="url(#d)"><g clip-path="url(#e)"><path fill="#1a2628" d="M.152.191h463.461v461.66H.153Zm0 0"/></g></g></g></g></g><g clip-path="url(#f)"><g clip-path="url(#g)"><g clip-path="url(#h)" transform="translate(150 358)"><g clip-path="url(#i)"><g clip-path="url(#j)"><path fill="#fdbc48" d="M.223.8h204.41v185.563H.223Zm0 0"/></g></g></g></g></g><g clip-path="url(#k)"><g clip-path="url(#l)"><g clip-path="url(#m)" transform="translate(161 373)"><g clip-path="url(#n)"><g clip-path="url(#o)"><path fill="#fff" d="M.46.121h179.731v154.922H.461Zm0 0"/></g></g></g></g></g><path fill="none" stroke="#fdbc48" stroke-width="9.75" d="M259.18 621.594v-77.23"/><path fill="#fdbc48" stroke="#fdbc48" stroke-linecap="round" stroke-linejoin="round" stroke-width="9.75" d="M259.18 653.281c-8.078 0-14.625-6.55-14.625-14.625 0-8.078 6.547-14.625 14.625-14.625s14.625 6.547 14.625 14.625c0 8.074-6.547 14.625-14.625 14.625"/><path fill="none" stroke="#fdbc48" stroke-width="9.75" d="m341.938 496.984 66.457 1.414"/><path fill="none" stroke="#fdbc48" stroke-linecap="round" stroke-linejoin="round" stroke-width="9.75" d="M440.074 499.07c-.172 8.075-6.86 14.485-14.933 14.313-8.075-.172-14.485-6.86-14.313-14.934s6.86-14.484 14.934-14.312 14.484 6.86 14.312 14.933"/><path fill="none" stroke="#fdbc48" stroke-width="9.75" d="m344.656 528.516 47.032 57.062M380.758 612.29l9.555-31.7"/><path fill="#fdbc48" stroke="#fdbc48" stroke-linecap="round" stroke-linejoin="round" stroke-width="9.75" d="M371.617 642.629c-7.734-2.332-12.113-10.488-9.785-18.223 2.332-7.734 10.488-12.113 18.223-9.785 7.734 2.332 12.113 10.488 9.785 18.223-2.332 7.734-10.488 12.113-18.223 9.785"/><path fill="none" stroke="#fdbc48" stroke-width="9.75" d="m167.125 537.656-38.59 63.082M116.031 599.89l16.293-1.152"/><path fill="#fdbc48" stroke="#fdbc48" stroke-linecap="round" stroke-linejoin="round" stroke-width="9.75" d="M84.422 602.129c-.57-8.059 5.5-15.05 13.555-15.621 8.058-.57 15.05 5.496 15.62 13.554.571 8.06-5.495 15.051-13.554 15.622-8.055.57-15.05-5.497-15.621-13.555"/><path fill="none" stroke="#fdbc48" stroke-width="9.75" d="m165.629 381.96-60.738-42.183M107.422 326.926l-.285 16.777"/><path fill="none" stroke="#fdbc48" stroke-linecap="round" stroke-linejoin="round" stroke-width="9.75" d="M107.957 295.242c8.078.137 14.512 6.797 14.375 14.871-.137 8.078-6.793 14.512-14.867 14.375-8.078-.136-14.516-6.793-14.38-14.867.138-8.078 6.798-14.516 14.872-14.379"/><path fill="none" stroke="#fdbc48" stroke-width="9.75" d="m341.836 375.426 53.144-51.422M406.5 328.637l-16.063-2.957"/><path fill="#fdbc48" stroke="#fdbc48" stroke-linecap="round" stroke-linejoin="round" stroke-width="9.75" d="M437.664 334.379c-1.465 7.945-9.09 13.195-17.035 11.734-7.941-1.465-13.195-9.09-11.734-17.035 1.464-7.941 9.09-13.195 17.035-11.73 7.941 1.46 13.195 9.09 11.734 17.03"/><path fill="none" stroke="#fdbc48" stroke-width="9.75" d="M215.535 575.125v-36.21"/><path fill="#fdbc48" stroke="#fdbc48" stroke-linecap="round" stroke-linejoin="round" stroke-width="9.75" d="M215.535 606.812c-8.074 0-14.625-6.546-14.625-14.625 0-8.078 6.55-14.625 14.625-14.625 8.078 0 14.625 6.547 14.625 14.625 0 8.079-6.547 14.625-14.625 14.625"/><path fill="none" stroke="#fdbc48" stroke-width="9.75" d="M302.266 544.371v40.3"/><path fill="none" stroke="#fdbc48" stroke-linecap="round" stroke-linejoin="round" stroke-width="9.75" d="M302.266 616.36c-8.079 0-14.625-6.551-14.625-14.626 0-8.078 6.546-14.625 14.625-14.625 8.078 0 14.625 6.547 14.625 14.625 0 8.075-6.547 14.625-14.625 14.625"/><path fill="none" stroke="#fdbc48" stroke-width="9.75" d="M74.215 454.988h77.226"/><path fill="#fdbc48" stroke="#fdbc48" stroke-linecap="round" stroke-linejoin="round" stroke-width="9.75" d="M42.527 454.988c0-8.078 6.547-14.625 14.625-14.625 8.075 0 14.625 6.547 14.625 14.625s-6.55 14.625-14.625 14.625c-8.078 0-14.625-6.547-14.625-14.625"/><path fill="none" stroke="#fdbc48" stroke-width="9.75" d="M124.508 411.352h36.21"/><path fill="#fdbc48" stroke="#fdbc48" stroke-linecap="round" stroke-linejoin="round" stroke-width="9.75" d="M92.82 411.352c0-8.079 6.547-14.625 14.625-14.625s14.625 6.546 14.625 14.625c0 8.078-6.547 14.625-14.625 14.625S92.82 419.43 92.82 411.352"/><path fill="none" stroke="#fdbc48" stroke-width="9.75" d="M151.43 498.078h-40.297"/><path fill="none" stroke="#fdbc48" stroke-linecap="round" stroke-linejoin="round" stroke-width="9.75" d="M79.445 498.078c0-8.074 6.547-14.625 14.625-14.625 8.075 0 14.625 6.55 14.625 14.625 0 8.078-6.55 14.625-14.625 14.625-8.078 0-14.625-6.547-14.625-14.625"/><path fill="none" stroke="#fdbc48" stroke-width="9.75" d="M260.82 282.023v77.23"/><path fill="none" stroke="#fdbc48" stroke-linecap="round" stroke-linejoin="round" stroke-width="9.75" d="M260.82 250.336c8.078 0 14.625 6.55 14.625 14.625 0 8.078-6.547 14.625-14.625 14.625s-14.625-6.547-14.625-14.625c0-8.074 6.547-14.625 14.625-14.625"/><path fill="none" stroke="#fdbc48" stroke-width="9.75" d="M304.453 326.852v36.21"/><path fill="#fdbc48" stroke="#fdbc48" stroke-linecap="round" stroke-linejoin="round" stroke-width="9.75" d="M304.453 295.164c8.078 0 14.625 6.547 14.625 14.625 0 8.074-6.547 14.625-14.625 14.625s-14.625-6.55-14.625-14.625c0-8.078 6.547-14.625 14.625-14.625"/><path fill="none" stroke="#fdbc48" stroke-width="9.75" d="M217.727 359.246v-40.3"/><path fill="none" stroke="#fdbc48" stroke-linecap="round" stroke-linejoin="round" stroke-width="9.75" d="M217.727 287.258c8.078 0 14.625 6.55 14.625 14.625 0 8.078-6.547 14.625-14.625 14.625-8.079 0-14.625-6.547-14.625-14.625 0-8.074 6.546-14.625 14.625-14.625"/><path fill="none" stroke="#fdbc48" stroke-width="9.75" d="M426.672 454.629h-77.227"/><path fill="#fdbc48" stroke="#fdbc48" stroke-linecap="round" stroke-linejoin="round" stroke-width="9.75" d="M458.36 454.629c0 8.074-6.548 14.625-14.626 14.625-8.074 0-14.625-6.55-14.625-14.625 0-8.078 6.551-14.625 14.625-14.625 8.078 0 14.625 6.547 14.625 14.625"/><path fill="none" stroke="#fdbc48" stroke-width="9.75" d="M349.445 411.352h40.301"/><path fill="none" stroke="#fdbc48" stroke-linecap="round" stroke-linejoin="round" stroke-width="9.75" d="M421.434 411.352c0 8.078-6.547 14.625-14.625 14.625-8.079 0-14.625-6.547-14.625-14.625 0-8.079 6.546-14.625 14.625-14.625 8.078 0 14.625 6.546 14.625 14.625"/><g clip-path="url(#p)"><g clip-path="url(#q)"><g clip-path="url(#r)" transform="translate(163 381)"><g clip-path="url(#s)"><g clip-path="url(#t)"><path fill="#1a2628" d="M.09.555h174.707v141.984H.09Zm0 0"/></g></g></g></g></g></svg>