<svg xmlns="http://www.w3.org/2000/svg" xmlns:xlink="http://www.w3.org/1999/xlink" width="1440" zoomAndPan="magnify" viewBox="0 80 1440 640" height="640" preserveAspectRatio="xMidYMid meet" version="1.0"><defs><g/><clipPath id="4a9276fcfb"><path d="M 282.363281 288.960938 L 538 288.960938 L 538 520.476562 L 282.363281 520.476562 Z M 282.363281 288.960938 " clip-rule="nonzero"/></clipPath><clipPath id="f28ba46720"><path d="M 320.613281 288.960938 L 499.492188 288.960938 C 509.636719 288.960938 519.367188 292.988281 526.539062 300.164062 C 533.710938 307.335938 537.742188 317.066406 537.742188 327.210938 L 537.742188 482.226562 C 537.742188 492.371094 533.710938 502.101562 526.539062 509.273438 C 519.367188 516.445312 509.636719 520.476562 499.492188 520.476562 L 320.613281 520.476562 C 310.46875 520.476562 300.742188 516.445312 293.566406 509.273438 C 286.394531 502.101562 282.363281 492.371094 282.363281 482.226562 L 282.363281 327.210938 C 282.363281 317.066406 286.394531 307.335938 293.566406 300.164062 C 300.742188 292.988281 310.46875 288.960938 320.613281 288.960938 Z M 320.613281 288.960938 " clip-rule="nonzero"/></clipPath><clipPath id="889808301b"><path d="M 0.363281 0.960938 L 255.839844 0.960938 L 255.839844 232.476562 L 0.363281 232.476562 Z M 0.363281 0.960938 " clip-rule="nonzero"/></clipPath><clipPath id="40aa3ffd98"><path d="M 38.613281 0.960938 L 217.492188 0.960938 C 227.636719 0.960938 237.367188 4.988281 244.539062 12.164062 C 251.710938 19.335938 255.742188 29.066406 255.742188 39.210938 L 255.742188 194.226562 C 255.742188 204.371094 251.710938 214.101562 244.539062 221.273438 C 237.367188 228.445312 227.636719 232.476562 217.492188 232.476562 L 38.613281 232.476562 C 28.46875 232.476562 18.742188 228.445312 11.566406 221.273438 C 4.394531 214.101562 0.363281 204.371094 0.363281 194.226562 L 0.363281 39.210938 C 0.363281 29.066406 4.394531 19.335938 11.566406 12.164062 C 18.742188 4.988281 28.46875 0.960938 38.613281 0.960938 Z M 38.613281 0.960938 " clip-rule="nonzero"/></clipPath><clipPath id="8a44d1a3b4"><rect x="0" width="256" y="0" height="233"/></clipPath><clipPath id="0ed9410367"><path d="M 297.996094 307.164062 L 522.234375 307.164062 L 522.234375 500.445312 L 297.996094 500.445312 Z M 297.996094 307.164062 " clip-rule="nonzero"/></clipPath><clipPath id="90fdfc02f4"><path d="M 336.246094 307.164062 L 483.859375 307.164062 C 494.003906 307.164062 503.734375 311.195312 510.90625 318.367188 C 518.082031 325.539062 522.109375 335.269531 522.109375 345.414062 L 522.109375 462.195312 C 522.109375 472.339844 518.082031 482.070312 510.90625 489.242188 C 503.734375 496.417969 494.003906 500.445312 483.859375 500.445312 L 336.246094 500.445312 C 326.101562 500.445312 316.371094 496.417969 309.199219 489.242188 C 302.027344 482.070312 297.996094 472.339844 297.996094 462.195312 L 297.996094 345.414062 C 297.996094 335.269531 302.027344 325.539062 309.199219 318.367188 C 316.371094 311.195312 326.101562 307.164062 336.246094 307.164062 Z M 336.246094 307.164062 " clip-rule="nonzero"/></clipPath><clipPath id="da9e785cf6"><path d="M 0.996094 0.164062 L 225.234375 0.164062 L 225.234375 193.445312 L 0.996094 193.445312 Z M 0.996094 0.164062 " clip-rule="nonzero"/></clipPath><clipPath id="5a8e41ce87"><path d="M 39.246094 0.164062 L 186.859375 0.164062 C 197.003906 0.164062 206.734375 4.195312 213.90625 11.367188 C 221.082031 18.539062 225.109375 28.269531 225.109375 38.414062 L 225.109375 155.195312 C 225.109375 165.339844 221.082031 175.070312 213.90625 182.242188 C 206.734375 189.417969 197.003906 193.445312 186.859375 193.445312 L 39.246094 193.445312 C 29.101562 193.445312 19.371094 189.417969 12.199219 182.242188 C 5.027344 175.070312 0.996094 165.339844 0.996094 155.195312 L 0.996094 38.414062 C 0.996094 28.269531 5.027344 18.539062 12.199219 11.367188 C 19.371094 4.195312 29.101562 0.164062 39.246094 0.164062 Z M 39.246094 0.164062 " clip-rule="nonzero"/></clipPath><clipPath id="354d4f772d"><rect x="0" width="226" y="0" height="194"/></clipPath><clipPath id="78fafc9a86"><path d="M 299.566406 316.128906 L 517.882812 316.128906 L 517.882812 493.621094 L 299.566406 493.621094 Z M 299.566406 316.128906 " clip-rule="nonzero"/></clipPath><clipPath id="cd9c937a0f"><path d="M 378.628906 317.234375 C 378.484375 317.863281 378.839844 318.496094 379.449219 318.707031 L 383.582031 320.136719 C 384.949219 320.609375 387.628906 321.9375 388.855469 322.753906 L 390.101562 323.582031 C 390.742188 324.003906 391.820312 324.992188 392.320312 325.605469 L 394.078125 327.765625 C 395.003906 328.90625 396.316406 331.199219 396.847656 332.613281 L 398.222656 336.269531 C 398.292969 336.449219 398.285156 336.652344 398.207031 336.828125 L 398.082031 337.105469 C 397.933594 337.429688 397.640625 337.792969 397.363281 337.992188 L 393.359375 340.859375 C 391.136719 342.449219 388.199219 345.699219 386.761719 348.160156 L 385.3125 350.636719 C 384.554688 351.933594 383.558594 354.472656 383.21875 355.96875 L 382.792969 357.851562 C 382.585938 358.78125 382.371094 360.714844 382.371094 361.671875 L 382.371094 363.1875 C 382.371094 363.933594 382.539062 365.445312 382.699219 366.171875 L 383.117188 368.011719 C 383.261719 368.648438 383.261719 369.585938 383.117188 370.222656 L 382.992188 370.773438 C 382.96875 370.875 382.890625 370.957031 382.785156 370.980469 C 382.683594 371.007812 382.574219 370.972656 382.507812 370.890625 L 379.996094 367.859375 C 378.496094 366.046875 376.957031 362.9375 376.382812 360.5625 L 375.886719 358.492188 C 375.628906 357.433594 374.890625 355.527344 374.371094 354.597656 L 372.882812 351.921875 C 372.144531 350.589844 370.367188 348.152344 369.347656 347.070312 L 361.152344 338.363281 C 359.847656 336.980469 357.683594 335.65625 355.933594 335.171875 L 353.523438 334.503906 C 353.1875 334.414062 352.835938 334.578125 352.691406 334.894531 C 352.628906 335.03125 352.632812 335.1875 352.695312 335.324219 C 352.761719 335.457031 352.882812 335.558594 353.027344 335.59375 L 355.554688 336.214844 C 356.378906 336.414062 357.332031 336.996094 357.929688 337.65625 L 358.425781 338.207031 C 358.699219 338.511719 359.042969 339.085938 359.1875 339.484375 L 359.554688 340.5 C 359.738281 341.007812 360.21875 341.964844 360.507812 342.402344 L 362.960938 346.101562 C 364.308594 348.136719 365.824219 351.808594 366.328125 354.269531 L 367.359375 359.292969 C 367.617188 360.550781 368.425781 363.246094 368.902344 364.425781 L 369.402344 365.667969 C 369.671875 366.347656 370.304688 367.328125 370.796875 367.839844 L 385.441406 383.03125 C 385.695312 383.296875 385.761719 383.6875 385.613281 384.019531 C 385.550781 384.148438 385.4375 384.246094 385.296875 384.277344 C 385.15625 384.308594 385.011719 384.269531 384.902344 384.179688 L 379.875 379.878906 C 377.4375 377.796875 371.09375 372.976562 368.460938 371.207031 L 364.441406 368.507812 C 362.644531 367.300781 358.054688 364.613281 356.140625 363.652344 L 350.050781 360.589844 C 347.203125 359.15625 340.515625 356.542969 337.484375 355.675781 L 331.382812 353.933594 C 329.46875 353.386719 327.488281 353.109375 325.5 353.109375 L 319.660156 353.109375 C 317.820312 353.109375 314.304688 353.65625 312.535156 354.214844 L 310.789062 354.765625 C 309.90625 355.046875 308.285156 355.84375 307.503906 356.382812 L 306.28125 357.230469 C 305.652344 357.664062 304.589844 358.664062 304.101562 359.28125 L 302.832031 360.886719 C 302.148438 361.75 301.257812 363.421875 300.902344 364.5 L 300.234375 366.53125 C 299.882812 367.609375 299.566406 369.582031 299.566406 370.726562 L 299.566406 374.339844 C 299.566406 376.242188 300.082031 379.558594 300.652344 381.351562 L 301.605469 384.34375 C 302.121094 385.960938 303.425781 388.425781 304.445312 389.71875 L 306.996094 392.941406 C 308.339844 394.640625 311.136719 397.15625 312.917969 398.261719 L 315.222656 399.695312 C 316.390625 400.421875 318.792969 401.460938 320.097656 401.800781 L 323.101562 402.582031 C 324.8125 403.027344 326.003906 404.570312 326.003906 406.339844 L 326.003906 410.683594 C 326.003906 411.488281 326.234375 412.800781 326.503906 413.550781 L 326.753906 414.238281 C 326.878906 414.59375 327.207031 415.210938 327.421875 415.507812 L 328.210938 416.597656 C 328.648438 417.207031 329.496094 417.964844 330.125 418.3125 L 332.054688 419.382812 C 333.117188 419.96875 334.953125 420.507812 336.140625 420.582031 L 339.550781 420.792969 C 341.257812 420.894531 344.636719 420.613281 346.308594 420.230469 L 350.621094 419.234375 C 352.625 418.773438 357.136719 417.296875 359.042969 416.480469 L 364.722656 414.050781 C 367.332031 412.929688 373.246094 409.800781 375.671875 408.257812 L 386.160156 401.574219 C 386.300781 401.484375 386.476562 401.480469 386.621094 401.558594 C 386.769531 401.640625 386.859375 401.792969 386.859375 401.957031 C 386.859375 402.488281 386.648438 402.996094 386.273438 403.375 L 384.113281 405.546875 C 382.84375 406.824219 379.703125 409.5 378.257812 410.535156 L 375.574219 412.457031 C 374.386719 413.308594 371.300781 415.257812 370.035156 415.960938 L 364.390625 419.082031 C 362.582031 420.082031 359.609375 422.453125 358.175781 424.035156 L 356.460938 425.933594 C 355.953125 426.496094 355.054688 427.769531 354.6875 428.453125 L 354.3125 429.140625 C 354.121094 429.488281 353.675781 430.105469 353.410156 430.382812 L 347.074219 437.003906 C 346.007812 438.121094 344.21875 440.582031 343.460938 441.976562 L 342.714844 443.355469 C 342.3125 444.097656 341.855469 445.464844 341.726562 446.320312 L 341.578125 447.308594 C 341.550781 447.492188 341.605469 447.679688 341.726562 447.824219 C 341.851562 447.964844 342.027344 448.046875 342.214844 448.046875 C 342.644531 448.046875 343.011719 447.730469 343.074219 447.308594 L 343.257812 446.097656 C 343.375 445.316406 343.78125 444.261719 344.210938 443.632812 L 344.585938 443.078125 C 344.792969 442.773438 345.203125 442.378906 345.503906 442.191406 L 358.046875 434.523438 C 361.019531 432.703125 366.25 428.351562 368.652344 425.691406 L 371.023438 423.070312 C 372.136719 421.835938 374.851562 419.339844 376.152344 418.347656 L 380.472656 415.0625 C 380.667969 414.914062 380.929688 414.875 381.160156 414.957031 C 381.394531 415.042969 381.566406 415.238281 381.621094 415.480469 L 381.699219 415.820312 C 381.808594 416.3125 381.738281 416.832031 381.496094 417.273438 L 381.121094 417.964844 C 380.746094 418.660156 380.183594 420.113281 379.992188 420.898438 L 379.433594 423.15625 C 379.101562 424.503906 378.25 426.058594 377.324219 427.003906 L 374.121094 430.273438 C 373.253906 431.160156 371.773438 433.140625 371.144531 434.246094 L 370.523438 435.351562 C 370.214844 435.894531 369.710938 437.085938 369.527344 437.691406 L 368.714844 440.382812 C 368.292969 441.789062 367.902344 444.4375 367.902344 445.917969 L 367.902344 453.195312 C 367.902344 454.992188 367.519531 458.71875 367.15625 460.464844 L 366.765625 462.332031 C 366.5625 463.300781 365.972656 464.65625 365.410156 465.433594 L 364.910156 466.125 C 364.59375 466.558594 364.125 466.875 363.628906 466.988281 L 362.507812 467.234375 C 362.136719 467.316406 361.824219 467.570312 361.667969 467.917969 L 361.582031 468.105469 C 361.542969 468.199219 361.539062 468.308594 361.578125 468.402344 C 361.621094 468.496094 361.695312 468.570312 361.792969 468.605469 L 362.167969 468.746094 C 362.640625 468.917969 363.183594 468.902344 363.648438 468.695312 L 364.527344 468.308594 C 365.03125 468.085938 365.683594 467.578125 366.039062 467.132812 L 367.71875 465.039062 C 368.617188 463.925781 369.828125 461.730469 370.316406 460.339844 L 371.605469 456.679688 C 372.273438 454.769531 372.976562 451.132812 373.070312 449.089844 L 373.234375 445.429688 C 373.324219 443.480469 374.042969 440.652344 374.886719 438.9375 L 375.636719 437.421875 C 375.714844 437.257812 375.898438 437.171875 376.078125 437.210938 C 376.257812 437.253906 376.382812 437.414062 376.382812 437.597656 L 376.382812 440.042969 C 376.382812 441.902344 376.640625 446.445312 376.847656 448.289062 L 377.363281 452.859375 C 377.613281 455.0625 378.59375 459.679688 379.253906 461.777344 L 380.3125 465.121094 C 380.824219 466.734375 382.238281 470.035156 383.042969 471.492188 L 384.949219 474.949219 C 385.929688 476.722656 388.195312 479.707031 389.601562 481.082031 L 392.46875 483.882812 C 393.851562 485.230469 397.066406 487.757812 398.671875 488.757812 L 401.460938 490.496094 C 402.316406 491.027344 404.398438 492.097656 405.3125 492.480469 L 406.3125 492.894531 C 406.84375 493.113281 407.804688 493.308594 408.375 493.308594 L 409.089844 493.308594 C 409.484375 493.308594 410.09375 493.164062 410.457031 492.984375 L 416.316406 490.105469 C 417.464844 489.539062 419.980469 488.007812 421.027344 487.234375 L 422.148438 486.40625 C 422.667969 486.023438 423.800781 485.03125 424.257812 484.5625 L 427.503906 481.207031 C 429.140625 479.515625 431.902344 475.769531 433.070312 473.65625 L 434.65625 470.785156 C 435.417969 469.40625 436.765625 466.269531 437.25 464.746094 L 438.242188 461.640625 C 438.707031 460.1875 439.492188 456.804688 439.722656 455.285156 L 440.226562 451.941406 C 440.449219 450.453125 440.8125 446.722656 440.882812 445.214844 L 441.214844 437.84375 C 441.21875 437.78125 441.253906 437.726562 441.304688 437.699219 C 441.359375 437.667969 441.425781 437.667969 441.476562 437.699219 L 441.726562 437.835938 C 442.035156 438.007812 442.320312 438.320312 442.476562 438.664062 L 443.097656 440.042969 C 443.4375 440.789062 443.777344 442.128906 443.839844 442.960938 L 444.429688 450.839844 C 444.578125 452.785156 445.332031 456.433594 445.96875 458.257812 L 446.589844 460.050781 C 446.914062 460.976562 447.738281 462.570312 448.300781 463.347656 L 450.160156 465.917969 C 450.742188 466.726562 451.867188 467.730469 452.699219 468.191406 L 453.5 468.636719 C 453.941406 468.878906 454.46875 468.921875 454.945312 468.746094 C 455.101562 468.6875 455.214844 468.550781 455.246094 468.386719 C 455.273438 468.222656 455.214844 468.058594 455.089844 467.949219 L 452.886719 466.054688 C 451.886719 465.191406 450.902344 463.710938 450.457031 462.398438 L 450.082031 461.292969 C 449.882812 460.703125 449.707031 459.640625 449.707031 459.011719 L 449.707031 450.390625 C 449.707031 448.140625 449.203125 443.605469 448.710938 441.421875 L 448.210938 439.214844 C 447.953125 438.0625 447.183594 436.089844 446.609375 435.085938 L 445.414062 433.011719 C 444.816406 431.972656 443.402344 430.105469 442.582031 429.273438 L 440.410156 427.070312 C 439.097656 425.738281 437.953125 423.609375 437.519531 421.699219 L 437.089844 419.800781 C 436.910156 419.003906 436.375 417.566406 435.992188 416.859375 L 435.617188 416.171875 C 435.378906 415.730469 435.324219 415.210938 435.46875 414.730469 L 435.492188 414.652344 C 435.546875 414.46875 435.691406 414.324219 435.878906 414.265625 C 436.0625 414.210938 436.261719 414.25 436.414062 414.371094 L 439.484375 416.859375 C 441.203125 418.257812 444.996094 421.859375 446.503906 423.527344 L 449.851562 427.230469 C 451.570312 429.132812 455.234375 432.125 457.386719 433.382812 L 469.910156 440.695312 C 470.550781 441.070312 471.640625 441.960938 472.152344 442.527344 L 472.652344 443.078125 C 472.949219 443.40625 473.222656 443.941406 473.324219 444.386719 L 473.972656 447.269531 C 474.082031 447.753906 474.429688 448.152344 474.898438 448.324219 C 475.058594 448.382812 475.238281 448.351562 475.371094 448.25 C 475.503906 448.144531 475.574219 447.976562 475.554688 447.804688 L 475.394531 446.390625 C 475.257812 445.15625 474.675781 443.351562 474.082031 442.296875 L 473.367188 441.03125 C 473.011719 440.402344 472.160156 439.253906 471.671875 438.746094 L 465.484375 432.300781 C 464.84375 431.632812 463.664062 430.085938 463.175781 429.28125 L 462.675781 428.453125 C 462.4375 428.058594 461.84375 427.257812 461.542969 426.921875 L 457.488281 422.433594 C 456.238281 421.050781 453.832031 419.269531 452.203125 418.515625 L 450.707031 417.828125 C 450.023438 417.511719 448.449219 416.636719 447.816406 416.222656 L 439.382812 410.695312 C 437.578125 409.507812 434.234375 406.636719 432.75 404.992188 L 430.289062 402.273438 C 430.171875 402.140625 430.125 401.957031 430.167969 401.785156 C 430.210938 401.609375 430.335938 401.46875 430.503906 401.40625 C 430.96875 401.234375 431.488281 401.320312 431.871094 401.632812 L 434.992188 404.167969 C 436.734375 405.582031 440.949219 408.429688 442.882812 409.496094 L 445.796875 411.109375 C 447.085938 411.824219 450.410156 413.417969 451.765625 413.972656 L 456.972656 416.105469 C 459.359375 417.085938 465.121094 418.917969 467.613281 419.492188 L 470.882812 420.246094 C 472.515625 420.625 475.816406 420.898438 477.480469 420.796875 L 481.230469 420.566406 C 482.238281 420.503906 483.945312 420.058594 484.875 419.621094 L 485.746094 419.207031 C 486.21875 418.984375 486.925781 418.453125 487.292969 418.050781 L 488.453125 416.765625 C 489.058594 416.097656 489.964844 414.703125 490.347656 413.855469 L 490.726562 413.011719 C 490.945312 412.535156 491.109375 411.761719 491.109375 411.226562 L 491.109375 404.554688 C 491.109375 403.535156 491.847656 402.667969 492.855469 402.511719 L 494.601562 402.234375 C 496.382812 401.953125 499.660156 400.882812 501.292969 400.046875 L 502.933594 399.207031 C 503.769531 398.78125 505.246094 397.722656 505.9375 397.054688 L 510.367188 392.761719 C 511.5 391.664062 513.277344 389.3125 514.054688 387.882812 L 514.800781 386.503906 C 515.164062 385.835938 515.789062 384.335938 516.011719 383.597656 L 516.777344 381.046875 C 517.179688 379.71875 517.546875 377.214844 517.546875 375.8125 L 517.546875 370.796875 C 517.546875 368.941406 516.992188 366.113281 516.296875 364.425781 L 515.675781 362.90625 C 515.34375 362.097656 514.554688 360.839844 513.984375 360.210938 L 512.773438 358.867188 C 512.164062 358.195312 510.816406 357.058594 510.070312 356.585938 L 509.070312 355.953125 C 508.582031 355.644531 507.5 355.125 506.964844 354.941406 L 504.273438 354.027344 C 502.496094 353.421875 500.621094 353.144531 498.742188 353.207031 L 492.09375 353.4375 C 488.902344 353.550781 482.460938 354.640625 479.386719 355.59375 L 476.269531 356.558594 C 474.859375 356.996094 471.519531 358.300781 470.175781 358.9375 L 466.425781 360.714844 C 464.78125 361.496094 460.671875 363.714844 459.105469 364.675781 L 453.660156 368 C 451.238281 369.476562 445.390625 373.535156 443.136719 375.304688 L 436.867188 380.214844 C 436.476562 380.523438 435.957031 380.605469 435.492188 380.433594 C 435.328125 380.371094 435.210938 380.234375 435.171875 380.066406 C 435.136719 379.894531 435.191406 379.71875 435.3125 379.597656 L 440.566406 374.472656 C 441.796875 373.269531 444.429688 370.246094 445.46875 368.839844 L 446.589844 367.324219 C 447.167969 366.539062 448.03125 364.921875 448.371094 363.984375 L 449.039062 362.136719 C 449.347656 361.277344 449.917969 359.242188 450.097656 358.339844 L 450.902344 354.347656 C 451.324219 352.242188 452.625 348.703125 453.648438 346.871094 L 457.445312 340.085938 C 457.808594 339.4375 458.699219 338.195312 459.183594 337.65625 L 459.683594 337.105469 C 459.996094 336.757812 460.445312 336.519531 460.882812 336.464844 L 464.125 336.066406 C 464.4375 336.027344 464.671875 335.761719 464.671875 335.449219 C 464.671875 335.117188 464.464844 334.820312 464.152344 334.703125 L 463.925781 334.621094 C 463.441406 334.441406 462.910156 334.433594 462.417969 334.59375 L 460.683594 335.171875 C 459.257812 335.644531 457.378906 336.855469 456.304688 337.992188 L 449.167969 345.546875 C 448.015625 346.765625 445.65625 349.753906 444.71875 351.179688 L 443.722656 352.695312 C 443.195312 353.496094 442.492188 355.066406 442.238281 356.011719 L 440.644531 361.890625 C 440.117188 363.832031 438.785156 366.304688 437.488281 367.738281 L 435.777344 369.628906 C 435.453125 369.988281 434.945312 370.113281 434.496094 369.945312 C 434.070312 369.789062 433.832031 369.335938 433.945312 368.898438 L 434.246094 367.738281 C 434.496094 366.757812 434.742188 364.8125 434.742188 363.796875 L 434.742188 361.488281 C 434.742188 360.347656 434.488281 358.050781 434.238281 356.945312 L 433.742188 354.75 C 433.503906 353.6875 432.777344 351.515625 432.335938 350.535156 L 431.792969 349.339844 C 431.519531 348.734375 430.847656 347.652344 430.4375 347.152344 L 428.351562 344.613281 C 427.285156 343.3125 424.964844 341.207031 423.601562 340.304688 L 420.113281 337.988281 C 419.328125 337.464844 418.984375 336.484375 419.28125 335.585938 L 419.78125 334.066406 C 420.304688 332.46875 421.652344 329.847656 422.625 328.53125 L 423.945312 326.746094 C 424.632812 325.816406 426.109375 324.367188 427.027344 323.722656 L 428.890625 322.410156 C 429.824219 321.753906 431.804688 320.734375 432.863281 320.367188 L 438.160156 318.535156 C 438.527344 318.410156 438.824219 318.136719 438.984375 317.785156 C 439.136719 317.449219 439.074219 317.058594 438.828125 316.785156 L 438.734375 316.679688 C 438.429688 316.34375 437.957031 316.21875 437.527344 316.355469 L 434.742188 317.234375 C 433.023438 317.777344 429.652344 319.347656 428.097656 320.332031 L 426.183594 321.542969 C 425.1875 322.171875 423.5625 323.625 422.792969 324.566406 L 421.285156 326.417969 C 420.484375 327.40625 419.386719 329.355469 418.941406 330.585938 L 417.808594 333.730469 C 417.21875 335.359375 415.539062 336.320312 413.835938 336.007812 L 413.75 335.992188 C 411.796875 335.632812 409.796875 335.558594 407.820312 335.777344 L 401.195312 336.511719 C 400.960938 336.535156 400.730469 336.449219 400.574219 336.277344 L 400.328125 336 C 400.042969 335.6875 399.730469 335.128906 399.605469 334.707031 L 398.71875 331.765625 C 398.226562 330.140625 396.988281 327.800781 395.949219 326.53125 L 394.394531 324.640625 C 393.589844 323.664062 391.878906 322.144531 390.839844 321.488281 L 388.351562 319.910156 C 387.125 319.136719 384.460938 317.894531 383.101562 317.464844 L 379.957031 316.46875 C 379.679688 316.382812 379.378906 316.414062 379.125 316.558594 C 378.871094 316.707031 378.691406 316.949219 378.628906 317.234375 Z M 378.628906 317.234375 " clip-rule="nonzero"/></clipPath><clipPath id="4ab94ff303"><path d="M 0.566406 0.128906 L 218.679688 0.128906 L 218.679688 177.441406 L 0.566406 177.441406 Z M 0.566406 0.128906 " clip-rule="nonzero"/></clipPath><clipPath id="10e8674b66"><path d="M 79.628906 1.234375 C 79.484375 1.863281 79.839844 2.496094 80.449219 2.707031 L 84.582031 4.136719 C 85.949219 4.609375 88.628906 5.9375 89.855469 6.753906 L 91.101562 7.582031 C 91.742188 8.003906 92.820312 8.992188 93.320312 9.605469 L 95.078125 11.765625 C 96.003906 12.90625 97.316406 15.199219 97.847656 16.613281 L 99.222656 20.269531 C 99.292969 20.449219 99.285156 20.652344 99.207031 20.828125 L 99.082031 21.105469 C 98.933594 21.429688 98.640625 21.792969 98.363281 21.992188 L 94.359375 24.859375 C 92.136719 26.449219 89.199219 29.699219 87.761719 32.160156 L 86.3125 34.636719 C 85.554688 35.933594 84.558594 38.472656 84.21875 39.96875 L 83.792969 41.851562 C 83.585938 42.78125 83.371094 44.714844 83.371094 45.671875 L 83.371094 47.1875 C 83.371094 47.933594 83.539062 49.445312 83.699219 50.171875 L 84.117188 52.011719 C 84.261719 52.648438 84.261719 53.585938 84.117188 54.222656 L 83.992188 54.773438 C 83.96875 54.875 83.890625 54.957031 83.785156 54.980469 C 83.683594 55.007812 83.574219 54.972656 83.507812 54.890625 L 80.996094 51.859375 C 79.496094 50.046875 77.957031 46.9375 77.382812 44.5625 L 76.886719 42.492188 C 76.628906 41.433594 75.890625 39.527344 75.371094 38.597656 L 73.882812 35.921875 C 73.144531 34.589844 71.367188 32.152344 70.347656 31.070312 L 62.152344 22.363281 C 60.847656 20.980469 58.683594 19.65625 56.933594 19.171875 L 54.523438 18.503906 C 54.1875 18.414062 53.835938 18.578125 53.691406 18.894531 C 53.628906 19.03125 53.632812 19.1875 53.695312 19.324219 C 53.761719 19.457031 53.882812 19.558594 54.027344 19.59375 L 56.554688 20.214844 C 57.378906 20.414062 58.332031 20.996094 58.929688 21.65625 L 59.425781 22.207031 C 59.699219 22.511719 60.042969 23.085938 60.1875 23.484375 L 60.554688 24.5 C 60.738281 25.007812 61.21875 25.964844 61.507812 26.402344 L 63.960938 30.101562 C 65.308594 32.136719 66.824219 35.808594 67.328125 38.269531 L 68.359375 43.292969 C 68.617188 44.550781 69.425781 47.246094 69.902344 48.425781 L 70.402344 49.667969 C 70.671875 50.347656 71.304688 51.328125 71.796875 51.839844 L 86.441406 67.03125 C 86.695312 67.296875 86.761719 67.6875 86.613281 68.019531 C 86.550781 68.148438 86.4375 68.246094 86.296875 68.277344 C 86.15625 68.308594 86.011719 68.269531 85.902344 68.179688 L 80.875 63.878906 C 78.4375 61.796875 72.09375 56.976562 69.460938 55.207031 L 65.441406 52.507812 C 63.644531 51.300781 59.054688 48.613281 57.140625 47.652344 L 51.050781 44.589844 C 48.203125 43.15625 41.515625 40.542969 38.484375 39.675781 L 32.382812 37.933594 C 30.46875 37.386719 28.488281 37.109375 26.5 37.109375 L 20.660156 37.109375 C 18.820312 37.109375 15.304688 37.65625 13.535156 38.214844 L 11.789062 38.765625 C 10.90625 39.046875 9.285156 39.84375 8.503906 40.382812 L 7.28125 41.230469 C 6.652344 41.664062 5.589844 42.664062 5.101562 43.28125 L 3.832031 44.886719 C 3.148438 45.75 2.257812 47.421875 1.902344 48.5 L 1.234375 50.53125 C 0.882812 51.609375 0.566406 53.582031 0.566406 54.726562 L 0.566406 58.339844 C 0.566406 60.242188 1.082031 63.558594 1.652344 65.351562 L 2.605469 68.34375 C 3.121094 69.960938 4.425781 72.425781 5.445312 73.71875 L 7.996094 76.941406 C 9.339844 78.640625 12.136719 81.15625 13.917969 82.261719 L 16.222656 83.695312 C 17.390625 84.421875 19.792969 85.460938 21.097656 85.800781 L 24.101562 86.582031 C 25.8125 87.027344 27.003906 88.570312 27.003906 90.339844 L 27.003906 94.683594 C 27.003906 95.488281 27.234375 96.800781 27.503906 97.550781 L 27.753906 98.238281 C 27.878906 98.59375 28.207031 99.210938 28.421875 99.507812 L 29.210938 100.597656 C 29.648438 101.207031 30.496094 101.964844 31.125 102.3125 L 33.054688 103.382812 C 34.117188 103.96875 35.953125 104.507812 37.140625 104.582031 L 40.550781 104.792969 C 42.257812 104.894531 45.636719 104.613281 47.308594 104.230469 L 51.621094 103.234375 C 53.625 102.773438 58.136719 101.296875 60.042969 100.480469 L 65.722656 98.050781 C 68.332031 96.929688 74.246094 93.800781 76.671875 92.257812 L 87.160156 85.574219 C 87.300781 85.484375 87.476562 85.480469 87.621094 85.558594 C 87.769531 85.640625 87.859375 85.792969 87.859375 85.957031 C 87.859375 86.488281 87.648438 86.996094 87.273438 87.375 L 85.113281 89.546875 C 83.84375 90.824219 80.703125 93.5 79.257812 94.535156 L 76.574219 96.457031 C 75.386719 97.308594 72.300781 99.257812 71.035156 99.960938 L 65.390625 103.082031 C 63.582031 104.082031 60.609375 106.453125 59.175781 108.035156 L 57.460938 109.933594 C 56.953125 110.496094 56.054688 111.769531 55.6875 112.453125 L 55.3125 113.140625 C 55.121094 113.488281 54.675781 114.105469 54.410156 114.382812 L 48.074219 121.003906 C 47.007812 122.121094 45.21875 124.582031 44.460938 125.976562 L 43.714844 127.355469 C 43.3125 128.097656 42.855469 129.464844 42.726562 130.320312 L 42.578125 131.308594 C 42.550781 131.492188 42.605469 131.679688 42.726562 131.824219 C 42.851562 131.964844 43.027344 132.046875 43.214844 132.046875 C 43.644531 132.046875 44.011719 131.730469 44.074219 131.308594 L 44.257812 130.097656 C 44.375 129.316406 44.78125 128.261719 45.210938 127.632812 L 45.585938 127.078125 C 45.792969 126.773438 46.203125 126.378906 46.503906 126.191406 L 59.046875 118.523438 C 62.019531 116.703125 67.25 112.351562 69.652344 109.691406 L 72.023438 107.070312 C 73.136719 105.835938 75.851562 103.339844 77.152344 102.347656 L 81.472656 99.0625 C 81.667969 98.914062 81.929688 98.875 82.160156 98.957031 C 82.394531 99.042969 82.566406 99.238281 82.621094 99.480469 L 82.699219 99.820312 C 82.808594 100.3125 82.738281 100.832031 82.496094 101.273438 L 82.121094 101.964844 C 81.746094 102.660156 81.183594 104.113281 80.992188 104.898438 L 80.433594 107.15625 C 80.101562 108.503906 79.25 110.058594 78.324219 111.003906 L 75.121094 114.273438 C 74.253906 115.160156 72.773438 117.140625 72.144531 118.246094 L 71.523438 119.351562 C 71.214844 119.894531 70.710938 121.085938 70.527344 121.691406 L 69.714844 124.382812 C 69.292969 125.789062 68.902344 128.4375 68.902344 129.917969 L 68.902344 137.195312 C 68.902344 138.992188 68.519531 142.71875 68.15625 144.464844 L 67.765625 146.332031 C 67.5625 147.300781 66.972656 148.65625 66.410156 149.433594 L 65.910156 150.125 C 65.59375 150.558594 65.125 150.875 64.628906 150.988281 L 63.507812 151.234375 C 63.136719 151.316406 62.824219 151.570312 62.667969 151.917969 L 62.582031 152.105469 C 62.542969 152.199219 62.539062 152.308594 62.578125 152.402344 C 62.621094 152.496094 62.695312 152.570312 62.792969 152.605469 L 63.167969 152.746094 C 63.640625 152.917969 64.183594 152.902344 64.648438 152.695312 L 65.527344 152.308594 C 66.03125 152.085938 66.683594 151.578125 67.039062 151.132812 L 68.71875 149.039062 C 69.617188 147.925781 70.828125 145.730469 71.316406 144.339844 L 72.605469 140.679688 C 73.273438 138.769531 73.976562 135.132812 74.070312 133.089844 L 74.234375 129.429688 C 74.324219 127.480469 75.042969 124.652344 75.886719 122.9375 L 76.636719 121.421875 C 76.714844 121.257812 76.898438 121.171875 77.078125 121.210938 C 77.257812 121.253906 77.382812 121.414062 77.382812 121.597656 L 77.382812 124.042969 C 77.382812 125.902344 77.640625 130.445312 77.847656 132.289062 L 78.363281 136.859375 C 78.613281 139.0625 79.59375 143.679688 80.253906 145.777344 L 81.3125 149.121094 C 81.824219 150.734375 83.238281 154.035156 84.042969 155.492188 L 85.949219 158.949219 C 86.929688 160.722656 89.195312 163.707031 90.601562 165.082031 L 93.46875 167.882812 C 94.851562 169.230469 98.066406 171.757812 99.671875 172.757812 L 102.460938 174.496094 C 103.316406 175.027344 105.398438 176.097656 106.3125 176.480469 L 107.3125 176.894531 C 107.84375 177.113281 108.804688 177.308594 109.375 177.308594 L 110.089844 177.308594 C 110.484375 177.308594 111.09375 177.164062 111.457031 176.984375 L 117.316406 174.105469 C 118.464844 173.539062 120.980469 172.007812 122.027344 171.234375 L 123.148438 170.40625 C 123.667969 170.023438 124.800781 169.03125 125.257812 168.5625 L 128.503906 165.207031 C 130.140625 163.515625 132.902344 159.769531 134.070312 157.65625 L 135.65625 154.785156 C 136.417969 153.40625 137.765625 150.269531 138.25 148.746094 L 139.242188 145.640625 C 139.707031 144.1875 140.492188 140.804688 140.722656 139.285156 L 141.226562 135.941406 C 141.449219 134.453125 141.8125 130.722656 141.882812 129.214844 L 142.214844 121.84375 C 142.21875 121.78125 142.253906 121.726562 142.304688 121.699219 C 142.359375 121.667969 142.425781 121.667969 142.476562 121.699219 L 142.726562 121.835938 C 143.035156 122.007812 143.320312 122.320312 143.476562 122.664062 L 144.097656 124.042969 C 144.4375 124.789062 144.777344 126.128906 144.839844 126.960938 L 145.429688 134.839844 C 145.578125 136.785156 146.332031 140.433594 146.96875 142.257812 L 147.589844 144.050781 C 147.914062 144.976562 148.738281 146.570312 149.300781 147.347656 L 151.160156 149.917969 C 151.742188 150.726562 152.867188 151.730469 153.699219 152.191406 L 154.5 152.636719 C 154.941406 152.878906 155.46875 152.921875 155.945312 152.746094 C 156.101562 152.6875 156.214844 152.550781 156.246094 152.386719 C 156.273438 152.222656 156.214844 152.058594 156.089844 151.949219 L 153.886719 150.054688 C 152.886719 149.191406 151.902344 147.710938 151.457031 146.398438 L 151.082031 145.292969 C 150.882812 144.703125 150.707031 143.640625 150.707031 143.011719 L 150.707031 134.390625 C 150.707031 132.140625 150.203125 127.605469 149.710938 125.421875 L 149.210938 123.214844 C 148.953125 122.0625 148.183594 120.089844 147.609375 119.085938 L 146.414062 117.011719 C 145.816406 115.972656 144.402344 114.105469 143.582031 113.273438 L 141.410156 111.070312 C 140.097656 109.738281 138.953125 107.609375 138.519531 105.699219 L 138.089844 103.800781 C 137.910156 103.003906 137.375 101.566406 136.992188 100.859375 L 136.617188 100.171875 C 136.378906 99.730469 136.324219 99.210938 136.46875 98.730469 L 136.492188 98.652344 C 136.546875 98.46875 136.691406 98.324219 136.878906 98.265625 C 137.0625 98.210938 137.261719 98.25 137.414062 98.371094 L 140.484375 100.859375 C 142.203125 102.257812 145.996094 105.859375 147.503906 107.527344 L 150.851562 111.230469 C 152.570312 113.132812 156.234375 116.125 158.386719 117.382812 L 170.910156 124.695312 C 171.550781 125.070312 172.640625 125.960938 173.152344 126.527344 L 173.652344 127.078125 C 173.949219 127.40625 174.222656 127.941406 174.324219 128.386719 L 174.972656 131.269531 C 175.082031 131.753906 175.429688 132.152344 175.898438 132.324219 C 176.058594 132.382812 176.238281 132.351562 176.371094 132.25 C 176.503906 132.144531 176.574219 131.976562 176.554688 131.804688 L 176.394531 130.390625 C 176.257812 129.15625 175.675781 127.351562 175.082031 126.296875 L 174.367188 125.03125 C 174.011719 124.402344 173.160156 123.253906 172.671875 122.746094 L 166.484375 116.300781 C 165.84375 115.632812 164.664062 114.085938 164.175781 113.28125 L 163.675781 112.453125 C 163.4375 112.058594 162.84375 111.257812 162.542969 110.921875 L 158.488281 106.433594 C 157.238281 105.050781 154.832031 103.269531 153.203125 102.515625 L 151.707031 101.828125 C 151.023438 101.511719 149.449219 100.636719 148.816406 100.222656 L 140.382812 94.695312 C 138.578125 93.507812 135.234375 90.636719 133.75 88.992188 L 131.289062 86.273438 C 131.171875 86.140625 131.125 85.957031 131.167969 85.785156 C 131.210938 85.609375 131.335938 85.46875 131.503906 85.40625 C 131.96875 85.234375 132.488281 85.320312 132.871094 85.632812 L 135.992188 88.167969 C 137.734375 89.582031 141.949219 92.429688 143.882812 93.496094 L 146.796875 95.109375 C 148.085938 95.824219 151.410156 97.417969 152.765625 97.972656 L 157.972656 100.105469 C 160.359375 101.085938 166.121094 102.917969 168.613281 103.492188 L 171.882812 104.246094 C 173.515625 104.625 176.816406 104.898438 178.480469 104.796875 L 182.230469 104.566406 C 183.238281 104.503906 184.945312 104.058594 185.875 103.621094 L 186.746094 103.207031 C 187.21875 102.984375 187.925781 102.453125 188.292969 102.050781 L 189.453125 100.765625 C 190.058594 100.097656 190.964844 98.703125 191.347656 97.855469 L 191.726562 97.011719 C 191.945312 96.535156 192.109375 95.761719 192.109375 95.226562 L 192.109375 88.554688 C 192.109375 87.535156 192.847656 86.667969 193.855469 86.511719 L 195.601562 86.234375 C 197.382812 85.953125 200.660156 84.882812 202.292969 84.046875 L 203.933594 83.207031 C 204.769531 82.78125 206.246094 81.722656 206.9375 81.054688 L 211.367188 76.761719 C 212.5 75.664062 214.277344 73.3125 215.054688 71.882812 L 215.800781 70.503906 C 216.164062 69.835938 216.789062 68.335938 217.011719 67.597656 L 217.777344 65.046875 C 218.179688 63.71875 218.546875 61.214844 218.546875 59.8125 L 218.546875 54.796875 C 218.546875 52.941406 217.992188 50.113281 217.296875 48.425781 L 216.675781 46.90625 C 216.34375 46.097656 215.554688 44.839844 214.984375 44.210938 L 213.773438 42.867188 C 213.164062 42.195312 211.816406 41.058594 211.070312 40.585938 L 210.070312 39.953125 C 209.582031 39.644531 208.5 39.125 207.964844 38.941406 L 205.273438 38.027344 C 203.496094 37.421875 201.621094 37.144531 199.742188 37.207031 L 193.09375 37.4375 C 189.902344 37.550781 183.460938 38.640625 180.386719 39.59375 L 177.269531 40.558594 C 175.859375 40.996094 172.519531 42.300781 171.175781 42.9375 L 167.425781 44.714844 C 165.78125 45.496094 161.671875 47.714844 160.105469 48.675781 L 154.660156 52 C 152.238281 53.476562 146.390625 57.535156 144.136719 59.304688 L 137.867188 64.214844 C 137.476562 64.523438 136.957031 64.605469 136.492188 64.433594 C 136.328125 64.371094 136.210938 64.234375 136.171875 64.066406 C 136.136719 63.894531 136.191406 63.71875 136.3125 63.597656 L 141.566406 58.472656 C 142.796875 57.269531 145.429688 54.246094 146.46875 52.839844 L 147.589844 51.324219 C 148.167969 50.539062 149.03125 48.921875 149.371094 47.984375 L 150.039062 46.136719 C 150.347656 45.277344 150.917969 43.242188 151.097656 42.339844 L 151.902344 38.347656 C 152.324219 36.242188 153.625 32.703125 154.648438 30.871094 L 158.445312 24.085938 C 158.808594 23.4375 159.699219 22.195312 160.183594 21.65625 L 160.683594 21.105469 C 160.996094 20.757812 161.445312 20.519531 161.882812 20.464844 L 165.125 20.066406 C 165.4375 20.027344 165.671875 19.761719 165.671875 19.449219 C 165.671875 19.117188 165.464844 18.820312 165.152344 18.703125 L 164.925781 18.621094 C 164.441406 18.441406 163.910156 18.433594 163.417969 18.59375 L 161.683594 19.171875 C 160.257812 19.644531 158.378906 20.855469 157.304688 21.992188 L 150.167969 29.546875 C 149.015625 30.765625 146.65625 33.753906 145.71875 35.179688 L 144.722656 36.695312 C 144.195312 37.496094 143.492188 39.066406 143.238281 40.011719 L 141.644531 45.890625 C 141.117188 47.832031 139.785156 50.304688 138.488281 51.738281 L 136.777344 53.628906 C 136.453125 53.988281 135.945312 54.113281 135.496094 53.945312 C 135.070312 53.789062 134.832031 53.335938 134.945312 52.898438 L 135.246094 51.738281 C 135.496094 50.757812 135.742188 48.8125 135.742188 47.796875 L 135.742188 45.488281 C 135.742188 44.347656 135.488281 42.050781 135.238281 40.945312 L 134.742188 38.75 C 134.503906 37.6875 133.777344 35.515625 133.335938 34.535156 L 132.792969 33.339844 C 132.519531 32.734375 131.847656 31.652344 131.4375 31.152344 L 129.351562 28.613281 C 128.285156 27.3125 125.964844 25.207031 124.601562 24.304688 L 121.113281 21.988281 C 120.328125 21.464844 119.984375 20.484375 120.28125 19.585938 L 120.78125 18.066406 C 121.304688 16.46875 122.652344 13.847656 123.625 12.53125 L 124.945312 10.746094 C 125.632812 9.816406 127.109375 8.367188 128.027344 7.722656 L 129.890625 6.410156 C 130.824219 5.753906 132.804688 4.734375 133.863281 4.367188 L 139.160156 2.535156 C 139.527344 2.410156 139.824219 2.136719 139.984375 1.785156 C 140.136719 1.449219 140.074219 1.058594 139.828125 0.785156 L 139.734375 0.679688 C 139.429688 0.34375 138.957031 0.21875 138.527344 0.355469 L 135.742188 1.234375 C 134.023438 1.777344 130.652344 3.347656 129.097656 4.332031 L 127.183594 5.542969 C 126.1875 6.171875 124.5625 7.625 123.792969 8.566406 L 122.285156 10.417969 C 121.484375 11.40625 120.386719 13.355469 119.941406 14.585938 L 118.808594 17.730469 C 118.21875 19.359375 116.539062 20.320312 114.835938 20.007812 L 114.75 19.992188 C 112.796875 19.632812 110.796875 19.558594 108.820312 19.777344 L 102.195312 20.511719 C 101.960938 20.535156 101.730469 20.449219 101.574219 20.277344 L 101.328125 20 C 101.042969 19.6875 100.730469 19.128906 100.605469 18.707031 L 99.71875 15.765625 C 99.226562 14.140625 97.988281 11.800781 96.949219 10.53125 L 95.394531 8.640625 C 94.589844 7.664062 92.878906 6.144531 91.839844 5.488281 L 89.351562 3.910156 C 88.125 3.136719 85.460938 1.894531 84.101562 1.464844 L 80.957031 0.46875 C 80.679688 0.382812 80.378906 0.414062 80.125 0.558594 C 79.871094 0.707031 79.691406 0.949219 79.628906 1.234375 Z M 79.628906 1.234375 " clip-rule="nonzero"/></clipPath><clipPath id="f0ecdda5d2"><rect x="0" width="219" y="0" height="178"/></clipPath></defs><g fill="#fdbc48" fill-opacity="1"><g transform="translate(543.504699, 473.624996)"><g><path d="M 84.53125 -122.953125 L 84.53125 -88.46875 C 84.53125 -84.96875 83.40625 -82.03125 81.15625 -79.65625 C 78.90625 -77.28125 76.09375 -75.78125 72.71875 -75.15625 L 72.71875 -74.78125 C 76.09375 -74.28125 78.90625 -72.8125 81.15625 -70.375 C 83.40625 -67.9375 84.53125 -64.96875 84.53125 -61.46875 L 84.53125 -26.984375 C 84.53125 -18.242188 82.21875 -11.5625 77.59375 -6.9375 C 72.96875 -2.3125 66.21875 0 57.34375 0 L 12.375 0 C 10.375 0 9.375 -1 9.375 -3 L 9.375 -146.9375 C 9.375 -148.9375 10.375 -149.9375 12.375 -149.9375 L 57.34375 -149.9375 C 66.21875 -149.9375 72.96875 -147.65625 77.59375 -143.09375 C 82.21875 -138.53125 84.53125 -131.816406 84.53125 -122.953125 Z M 59.59375 -94.640625 L 59.59375 -117.703125 C 59.59375 -122.703125 57.097656 -125.203125 52.109375 -125.203125 L 35.046875 -125.203125 L 35.046875 -87.34375 L 52.109375 -87.34375 C 57.097656 -87.34375 59.59375 -89.773438 59.59375 -94.640625 Z M 59.59375 -32.234375 L 59.59375 -55.109375 C 59.59375 -60.097656 57.097656 -62.59375 52.109375 -62.59375 L 35.046875 -62.59375 L 35.046875 -24.734375 L 52.109375 -24.734375 C 57.097656 -24.734375 59.59375 -27.234375 59.59375 -32.234375 Z M 59.59375 -32.234375 "/></g></g></g><g fill="#fdbc48" fill-opacity="1"><g transform="translate(637.401075, 473.624996)"><g><path d="M 84.15625 -128.203125 L 84.15625 -109.453125 C 84.15625 -107.328125 83.15625 -106.265625 81.15625 -106.265625 L 34.859375 -106.265625 L 34.859375 -77.40625 L 70.09375 -77.40625 C 72.09375 -77.40625 73.09375 -76.34375 73.09375 -74.21875 L 73.09375 -55.671875 C 73.09375 -53.546875 72.09375 -52.484375 70.09375 -52.484375 L 34.859375 -52.484375 L 34.859375 -24.734375 L 81.15625 -24.734375 C 83.15625 -24.734375 84.15625 -23.734375 84.15625 -21.734375 L 84.15625 -3 C 84.15625 -1 83.15625 0 81.15625 0 L 12.1875 0 C 10.3125 0 9.375 -1 9.375 -3 L 9.375 -128.203125 C 9.375 -130.191406 10.3125 -131.1875 12.1875 -131.1875 L 81.15625 -131.1875 C 83.15625 -131.1875 84.15625 -130.191406 84.15625 -128.203125 Z M 84.15625 -128.203125 "/></g></g></g><g fill="#fdbc48" fill-opacity="1"><g transform="translate(730.922612, 473.624996)"><g><path d="M 84.15625 -128.203125 L 84.15625 -109.453125 C 84.15625 -107.328125 83.15625 -106.265625 81.15625 -106.265625 L 34.859375 -106.265625 L 34.859375 -77.40625 L 70.09375 -77.40625 C 72.09375 -77.40625 73.09375 -76.34375 73.09375 -74.21875 L 73.09375 -55.671875 C 73.09375 -53.546875 72.09375 -52.484375 70.09375 -52.484375 L 34.859375 -52.484375 L 34.859375 -24.734375 L 81.15625 -24.734375 C 83.15625 -24.734375 84.15625 -23.734375 84.15625 -21.734375 L 84.15625 -3 C 84.15625 -1 83.15625 0 81.15625 0 L 12.1875 0 C 10.3125 0 9.375 -1 9.375 -3 L 9.375 -128.203125 C 9.375 -130.191406 10.3125 -131.1875 12.1875 -131.1875 L 81.15625 -131.1875 C 83.15625 -131.1875 84.15625 -130.191406 84.15625 -128.203125 Z M 84.15625 -128.203125 "/></g></g></g><g fill="#1a2628" fill-opacity="1"><g transform="translate(824.449997, 473.624996)"><g><path d="M 84.53125 -122.953125 L 84.53125 -88.46875 C 84.53125 -84.96875 83.40625 -82.03125 81.15625 -79.65625 C 78.90625 -77.28125 76.09375 -75.78125 72.71875 -75.15625 L 72.71875 -74.78125 C 76.09375 -74.28125 78.90625 -72.8125 81.15625 -70.375 C 83.40625 -67.9375 84.53125 -64.96875 84.53125 -61.46875 L 84.53125 -26.984375 C 84.53125 -18.242188 82.21875 -11.5625 77.59375 -6.9375 C 72.96875 -2.3125 66.21875 0 57.34375 0 L 12.375 0 C 10.375 0 9.375 -1 9.375 -3 L 9.375 -146.9375 C 9.375 -148.9375 10.375 -149.9375 12.375 -149.9375 L 57.34375 -149.9375 C 66.21875 -149.9375 72.96875 -147.65625 77.59375 -143.09375 C 82.21875 -138.53125 84.53125 -131.816406 84.53125 -122.953125 Z M 59.59375 -94.640625 L 59.59375 -117.703125 C 59.59375 -122.703125 57.097656 -125.203125 52.109375 -125.203125 L 35.046875 -125.203125 L 35.046875 -87.34375 L 52.109375 -87.34375 C 57.097656 -87.34375 59.59375 -89.773438 59.59375 -94.640625 Z M 59.59375 -32.234375 L 59.59375 -55.109375 C 59.59375 -60.097656 57.097656 -62.59375 52.109375 -62.59375 L 35.046875 -62.59375 L 35.046875 -24.734375 L 52.109375 -24.734375 C 57.097656 -24.734375 59.59375 -27.234375 59.59375 -32.234375 Z M 59.59375 -32.234375 "/></g></g></g><g fill="#1a2628" fill-opacity="1"><g transform="translate(918.346374, 473.624996)"><g><path d="M 63.34375 -131.1875 L 80.59375 -131.1875 C 81.59375 -131.1875 82.46875 -130.8125 83.21875 -130.0625 C 83.96875 -129.320312 84.34375 -128.453125 84.34375 -127.453125 L 84.34375 -26.984375 C 84.34375 -18.242188 82.0625 -11.5625 77.5 -6.9375 C 72.9375 -2.3125 66.21875 0 57.34375 0 L 36.359375 0 C 27.609375 0 20.921875 -2.3125 16.296875 -6.9375 C 11.679688 -11.5625 9.375 -18.242188 9.375 -26.984375 L 9.375 -127.453125 C 9.375 -128.453125 9.75 -129.320312 10.5 -130.0625 C 11.25 -130.8125 12.125 -131.1875 13.125 -131.1875 L 31.109375 -131.1875 C 32.109375 -131.1875 32.984375 -130.8125 33.734375 -130.0625 C 34.484375 -129.320312 34.859375 -128.453125 34.859375 -127.453125 L 34.859375 -32.234375 C 34.859375 -27.234375 37.359375 -24.734375 42.359375 -24.734375 L 52.109375 -24.734375 C 57.097656 -24.734375 59.59375 -27.234375 59.59375 -32.234375 L 59.59375 -127.453125 C 59.59375 -128.453125 59.96875 -129.320312 60.71875 -130.0625 C 61.46875 -130.8125 62.34375 -131.1875 63.34375 -131.1875 Z M 63.34375 -131.1875 "/></g></g></g><g fill="#1a2628" fill-opacity="1"><g transform="translate(1012.055331, 473.624996)"><g><path d="M 9.375 -3 L 9.375 -128.203125 C 9.375 -130.191406 10.375 -131.1875 12.375 -131.1875 L 57.34375 -131.1875 C 66.21875 -131.1875 72.9375 -128.875 77.5 -124.25 C 82.0625 -119.632812 84.34375 -112.890625 84.34375 -104.015625 L 84.34375 -26.984375 C 84.34375 -18.242188 82.0625 -11.5625 77.5 -6.9375 C 72.9375 -2.3125 66.21875 0 57.34375 0 L 12.375 0 C 10.375 0 9.375 -1 9.375 -3 Z M 34.859375 -24.734375 L 52.109375 -24.734375 C 57.097656 -24.734375 59.59375 -27.234375 59.59375 -32.234375 L 59.59375 -98.765625 C 59.59375 -103.890625 57.097656 -106.453125 52.109375 -106.453125 L 34.859375 -106.453125 Z M 34.859375 -24.734375 "/></g></g></g><g fill="#1a2628" fill-opacity="1"><g transform="translate(1105.764299, 473.624996)"><g><path d="M 9.375 -3 L 9.375 -128.203125 C 9.375 -130.191406 10.375 -131.1875 12.375 -131.1875 L 57.34375 -131.1875 C 66.21875 -131.1875 72.9375 -128.875 77.5 -124.25 C 82.0625 -119.632812 84.34375 -112.890625 84.34375 -104.015625 L 84.34375 -26.984375 C 84.34375 -18.242188 82.0625 -11.5625 77.5 -6.9375 C 72.9375 -2.3125 66.21875 0 57.34375 0 L 12.375 0 C 10.375 0 9.375 -1 9.375 -3 Z M 34.859375 -24.734375 L 52.109375 -24.734375 C 57.097656 -24.734375 59.59375 -27.234375 59.59375 -32.234375 L 59.59375 -98.765625 C 59.59375 -103.890625 57.097656 -106.453125 52.109375 -106.453125 L 34.859375 -106.453125 Z M 34.859375 -24.734375 "/></g></g></g><g fill="#1a2628" fill-opacity="1"><g transform="translate(1199.473232, 473.624996)"><g><path d="M 74.59375 -131.1875 L 93.34375 -131.1875 C 94.707031 -131.1875 95.703125 -130.78125 96.328125 -129.96875 C 96.953125 -129.164062 96.953125 -128.140625 96.328125 -126.890625 L 62.03125 -49.109375 L 62.03125 -3.75 C 62.03125 -1.25 60.78125 0 58.28125 0 L 40.296875 0 C 37.796875 0 36.546875 -1.25 36.546875 -3.75 L 36.546875 -49.109375 L 2.25 -126.890625 C 1.75 -128.140625 1.78125 -129.164062 2.34375 -129.96875 C 2.90625 -130.78125 3.875 -131.1875 5.25 -131.1875 L 23.984375 -131.1875 C 26.109375 -131.1875 27.546875 -130.191406 28.296875 -128.203125 L 49.296875 -80.03125 L 70.28125 -128.203125 C 71.03125 -130.191406 72.46875 -131.1875 74.59375 -131.1875 Z M 74.59375 -131.1875 "/></g></g></g><g clip-path="url(#4a9276fcfb)"><g clip-path="url(#f28ba46720)"><g transform="matrix(1, 0, 0, 1, 282, 288)"><g clip-path="url(#8a44d1a3b4)"><g clip-path="url(#889808301b)"><g clip-path="url(#40aa3ffd98)"><path fill="#fdbc48" d="M 0.363281 0.960938 L 255.394531 0.960938 L 255.394531 232.476562 L 0.363281 232.476562 Z M 0.363281 0.960938 " fill-opacity="1" fill-rule="nonzero"/></g></g></g></g></g></g><g clip-path="url(#0ed9410367)"><g clip-path="url(#90fdfc02f4)"><g transform="matrix(1, 0, 0, 1, 297, 307)"><g clip-path="url(#354d4f772d)"><g clip-path="url(#da9e785cf6)"><g clip-path="url(#5a8e41ce87)"><path fill="#ffffff" d="M 0.996094 0.164062 L 225.234375 0.164062 L 225.234375 193.445312 L 0.996094 193.445312 Z M 0.996094 0.164062 " fill-opacity="1" fill-rule="nonzero"/></g></g></g></g></g></g><path stroke-linecap="butt" transform="matrix(0.000000001309, -0.75, 0.75, 0.000000001309, 414.926025, 662.442827)" fill="none" stroke-linejoin="miter" d="M 33.751896 4.499675 L 189.29357 4.499674 " stroke="#fdbc48" stroke-width="9" stroke-opacity="1" stroke-miterlimit="4"/><path stroke-linecap="round" transform="matrix(0.000000001309, -0.75, 0.75, 0.000000001309, 414.926025, 662.442827)" fill-opacity="1" fill="#fdbc48" fill-rule="nonzero" stroke-linejoin="round" d="M 4.501894 4.499675 C 4.501894 -2.953451 10.543561 -9.000326 18.001895 -9.000326 C 25.45502 -9.000326 31.501895 -2.953451 31.501895 4.499675 C 31.501896 11.958008 25.45502 17.999675 18.001895 17.999675 C 10.543561 17.999675 4.501894 11.958008 4.501894 4.499675 " stroke="#fdbc48" stroke-width="9" stroke-opacity="1" stroke-miterlimit="4"/><path stroke-linecap="butt" transform="matrix(0.749831, 0.0159346, -0.0159346, 0.749831, 536.596491, 486.606716)" fill="none" stroke-linejoin="miter" d="M -0.00222812 3.499175 L 145.145121 3.498685 " stroke="#fdbc48" stroke-width="7" stroke-opacity="1" stroke-miterlimit="4"/><path stroke-linecap="round" transform="matrix(0.749831, 0.0159346, -0.0159346, 0.749831, 536.596491, 486.606716)" fill="none" stroke-linejoin="round" d="M 167.895071 3.499711 C 167.893261 9.297934 163.195178 13.99777 157.397066 14.001167 C 151.593636 13.999467 146.8938 9.301384 146.8955 3.497955 C 146.897311 -2.300268 151.595393 -7.000104 157.393616 -6.998294 C 163.191728 -7.00169 167.896882 -2.298511 167.895071 3.499711 " stroke="#fdbc48" stroke-width="7" stroke-opacity="1" stroke-miterlimit="4"/><path stroke-linecap="butt" transform="matrix(0.477004, 0.578764, -0.578764, 0.477004, 529.146436, 501.359947)" fill="none" stroke-linejoin="miter" d="M 0.00220956 4.500146 L 123.016788 4.497957 " stroke="#fdbc48" stroke-width="9" stroke-opacity="1" stroke-miterlimit="4"/><path stroke-linecap="butt" transform="matrix(0.194114, -0.724444, 0.724444, 0.194114, 562.946474, 635.524908)" fill="none" stroke-linejoin="miter" d="M 33.748973 4.500251 L 87.993715 4.50242 " stroke="#fdbc48" stroke-width="9" stroke-opacity="1" stroke-miterlimit="4"/><path stroke-linecap="round" transform="matrix(0.194114, -0.724444, 0.724444, 0.194114, 562.946474, 635.524908)" fill-opacity="1" fill="#fdbc48" fill-rule="nonzero" stroke-linejoin="round" d="M 4.501552 4.497013 C 4.500013 -2.954407 10.54215 -9.000277 17.999949 -8.998132 C 25.456399 -9.001019 31.497239 -2.957534 31.500125 4.498917 C 31.49798 11.956715 25.455844 18.002585 17.998045 18.000441 C 10.546625 18.001979 4.499407 11.954812 4.501552 4.497013 " stroke="#fdbc48" stroke-width="9" stroke-opacity="1" stroke-miterlimit="4"/><path stroke-linecap="butt" transform="matrix(-0.391365, 0.639792, -0.639792, -0.391365, 306.336963, 513.865242)" fill="none" stroke-linejoin="miter" d="M 0.00216208 4.500036 L 123.016731 4.501491 " stroke="#fdbc48" stroke-width="9" stroke-opacity="1" stroke-miterlimit="4"/><path stroke-linecap="butt" transform="matrix(0.748126, -0.0529834, 0.0529834, 0.748126, 192.179718, 590.359502)" fill="none" stroke-linejoin="miter" d="M 33.750792 4.499549 L 87.995786 4.498325 " stroke="#fdbc48" stroke-width="9" stroke-opacity="1" stroke-miterlimit="4"/><path stroke-linecap="round" transform="matrix(0.748126, -0.0529834, 0.0529834, 0.748126, 192.179718, 590.359502)" fill-opacity="1" fill="#fdbc48" fill-rule="nonzero" stroke-linejoin="round" d="M 4.500532 4.500889 C 4.501224 -2.955191 10.54244 -9.001853 17.99852 -9.001162 C 25.4546 -9.00047 31.500894 -2.954059 31.500203 4.502021 C 31.499511 11.958101 25.453468 17.9992 18.002583 17.998877 C 10.546503 17.998185 4.499841 11.956969 4.500532 4.500889 " stroke="#fdbc48" stroke-width="9" stroke-opacity="1" stroke-miterlimit="4"/><path stroke-linecap="butt" transform="matrix(-0.616004, -0.427831, 0.427831, -0.616004, 291.277463, 305.810805)" fill="none" stroke-linejoin="miter" d="M -0.000672281 4.500022 L 123.013386 4.499527 " stroke="#fdbc48" stroke-width="9" stroke-opacity="1" stroke-miterlimit="4"/><path stroke-linecap="butt" transform="matrix(0.00948254, 0.74994, -0.74994, 0.00948254, 221.920819, 186.586931)" fill="none" stroke-linejoin="miter" d="M 33.751791 4.498606 L 87.99567 4.502141 " stroke="#fdbc48" stroke-width="9" stroke-opacity="1" stroke-miterlimit="4"/><path stroke-linecap="round" transform="matrix(0.00948254, 0.74994, -0.74994, 0.00948254, 221.920819, 186.586931)" fill="none" stroke-linejoin="round" d="M 4.499451 4.498549 C 4.499941 -2.955167 10.545589 -8.999004 17.999305 -8.998514 C 25.458228 -8.997958 31.502131 -2.957517 31.501575 4.501406 C 31.501085 11.955121 25.455437 17.998959 18.001721 17.998468 C 10.542798 17.997912 4.498895 11.957472 4.499451 4.498549 " stroke="#fdbc48" stroke-width="9" stroke-opacity="1" stroke-miterlimit="4"/><path stroke-linecap="butt" transform="matrix(0.538993, -0.521523, 0.521523, 0.538993, 519.082492, 307.278228)" fill="none" stroke-linejoin="miter" d="M 0.000854699 4.499769 L 123.017287 4.499215 " stroke="#fdbc48" stroke-width="9" stroke-opacity="1" stroke-miterlimit="4"/><path stroke-linecap="butt" transform="matrix(-0.737588, -0.135882, 0.135882, -0.737588, 649.38115, 262.161892)" fill="none" stroke-linejoin="miter" d="M 33.751534 4.498234 L 87.993103 4.499078 " stroke="#fdbc48" stroke-width="9" stroke-opacity="1" stroke-miterlimit="4"/><path stroke-linecap="round" transform="matrix(-0.737588, -0.135882, 0.135882, -0.737588, 649.38115, 262.161892)" fill-opacity="1" fill="#fdbc48" fill-rule="nonzero" stroke-linejoin="round" d="M 4.502292 4.500672 C 4.500299 -2.955698 10.541791 -8.99925 17.998162 -9.001243 C 25.455476 -8.998115 31.499028 -2.956622 31.501022 4.499748 C 31.497893 11.957063 25.456401 18.000615 18.00003 18.002608 C 10.542715 17.999479 4.499164 11.957987 4.502292 4.500672 " stroke="#fdbc48" stroke-width="9" stroke-opacity="1" stroke-miterlimit="4"/><path stroke-linecap="butt" transform="matrix(0.000000001309, -0.75, 0.75, 0.000000001309, 360.482009, 604.474142)" fill="none" stroke-linejoin="miter" d="M 33.751982 4.497947 L 121.059278 4.497946 " stroke="#fdbc48" stroke-width="9" stroke-opacity="1" stroke-miterlimit="4"/><path stroke-linecap="round" transform="matrix(0.000000001309, -0.75, 0.75, 0.000000001309, 360.482009, 604.474142)" fill-opacity="1" fill="#fdbc48" fill-rule="nonzero" stroke-linejoin="round" d="M 4.501981 4.497947 C 4.501981 -2.955179 10.543648 -9.002054 18.001981 -9.002054 C 25.455107 -9.002054 31.501982 -2.955179 31.501982 4.497947 C 31.501982 11.95628 25.455107 17.997947 18.001981 17.997947 C 10.543648 17.997947 4.501981 11.95628 4.501981 4.497947 " stroke="#fdbc48" stroke-width="9" stroke-opacity="1" stroke-miterlimit="4"/><path stroke-linecap="butt" transform="matrix(0, 0.75, -0.75, 0, 474.691134, 520.47813)" fill="none" stroke-linejoin="miter" d="M -0.00208975 3.499638 L 101.612499 3.499638 " stroke="#fdbc48" stroke-width="7" stroke-opacity="1" stroke-miterlimit="4"/><path stroke-linecap="round" transform="matrix(0, 0.75, -0.75, 0, 474.691134, 520.47813)" fill="none" stroke-linejoin="round" d="M 124.3625 3.499638 C 124.3625 9.296513 119.659375 13.999638 113.862499 13.999638 C 108.065624 13.999638 103.362499 9.296513 103.362499 3.499638 C 103.362499 -2.297238 108.065624 -7.000363 113.862499 -7.000363 C 119.659375 -7.000363 124.3625 -2.297238 124.3625 3.499638 " stroke="#fdbc48" stroke-width="7" stroke-opacity="1" stroke-miterlimit="4"/><path stroke-linecap="butt" transform="matrix(0.75, 0.000000000000000901, -0.000000000000000901, 0.75, 141.917137, 405.593184)" fill="none" stroke-linejoin="miter" d="M 33.75111 4.500755 L 189.292785 4.500755 " stroke="#fdbc48" stroke-width="9" stroke-opacity="1" stroke-miterlimit="4"/><path stroke-linecap="round" transform="matrix(0.75, 0.000000000000000901, -0.000000000000000901, 0.75, 141.917137, 405.593184)" fill-opacity="1" fill="#fdbc48" fill-rule="nonzero" stroke-linejoin="round" d="M 4.501109 4.500755 C 4.501109 -2.957578 10.542776 -8.999245 18.001109 -8.999245 C 25.454235 -8.999245 31.50111 -2.957578 31.50111 4.500755 C 31.50111 11.953881 25.454235 18.000756 18.001109 18.000756 C 10.542776 18.000756 4.501109 11.953881 4.501109 4.500755 " stroke="#fdbc48" stroke-width="9" stroke-opacity="1" stroke-miterlimit="4"/><path stroke-linecap="butt" transform="matrix(0.75, 0.000000000000001409, -0.000000000000001409, 0.75, 204.665401, 351.149035)" fill="none" stroke-linejoin="miter" d="M 33.748217 4.499203 L 121.060722 4.499203 " stroke="#fdbc48" stroke-width="9" stroke-opacity="1" stroke-miterlimit="4"/><path stroke-linecap="round" transform="matrix(0.75, 0.000000000000001409, -0.000000000000001409, 0.75, 204.665401, 351.149035)" fill-opacity="1" fill="#fdbc48" fill-rule="nonzero" stroke-linejoin="round" d="M 4.498216 4.499203 C 4.498216 -2.953922 10.545091 -9.000797 17.998217 -9.000797 C 25.45655 -9.000797 31.498217 -2.953922 31.498217 4.499203 C 31.498217 11.957537 25.45655 17.999204 17.998217 17.999204 C 10.545091 17.999204 4.498216 11.957537 4.498216 4.499203 " stroke="#fdbc48" stroke-width="9" stroke-opacity="1" stroke-miterlimit="4"/><path stroke-linecap="butt" transform="matrix(-0.75, 0, 0, -0.75, 283.885509, 465.354549)" fill="none" stroke-linejoin="miter" d="M -0.00161335 3.498773 L 101.612975 3.498773 " stroke="#fdbc48" stroke-width="7" stroke-opacity="1" stroke-miterlimit="4"/><path stroke-linecap="round" transform="matrix(-0.75, 0, 0, -0.75, 283.885509, 465.354549)" fill="none" stroke-linejoin="round" d="M 124.362976 3.498773 C 124.362976 9.300857 119.659851 13.998774 113.862976 13.998774 C 108.060892 13.998774 103.362975 9.300857 103.362975 3.498773 C 103.362975 -2.298102 108.060892 -7.001227 113.862976 -7.001227 C 119.659851 -7.001227 124.362976 -2.298102 124.362976 3.498773 " stroke="#fdbc48" stroke-width="7" stroke-opacity="1" stroke-miterlimit="4"/><path stroke-linecap="butt" transform="matrix(0, 0.75, -0.75, 0, 420.959625, 147.557225)" fill="none" stroke-linejoin="miter" d="M 33.751826 4.49825 L 189.293501 4.49825 " stroke="#fdbc48" stroke-width="9" stroke-opacity="1" stroke-miterlimit="4"/><path stroke-linecap="round" transform="matrix(0, 0.75, -0.75, 0, 420.959625, 147.557225)" fill="none" stroke-linejoin="round" d="M 4.501825 4.49825 C 4.501825 -2.954875 10.543492 -9.00175 18.001825 -9.00175 C 25.454951 -9.00175 31.501826 -2.954875 31.501826 4.49825 C 31.501826 11.956584 25.454951 17.998251 18.001825 17.998251 C 10.543492 17.998251 4.501825 11.956584 4.501825 4.49825 " stroke="#fdbc48" stroke-width="9" stroke-opacity="1" stroke-miterlimit="4"/><path stroke-linecap="butt" transform="matrix(0, 0.75, -0.75, 0, 475.403958, 203.477544)" fill="none" stroke-linejoin="miter" d="M 33.748693 4.502153 L 121.061197 4.502153 " stroke="#fdbc48" stroke-width="9" stroke-opacity="1" stroke-miterlimit="4"/><path stroke-linecap="round" transform="matrix(0, 0.75, -0.75, 0, 475.403958, 203.477544)" fill-opacity="1" fill="#fdbc48" fill-rule="nonzero" stroke-linejoin="round" d="M 4.498691 4.502153 C 4.498691 -2.956181 10.545567 -8.997848 17.998692 -8.997848 C 25.457026 -8.997848 31.498693 -2.956181 31.498693 4.502153 C 31.498693 11.955278 25.457026 18.002154 17.998692 18.002154 C 10.545567 18.002154 4.498691 11.955278 4.498691 4.502153 " stroke="#fdbc48" stroke-width="9" stroke-opacity="1" stroke-miterlimit="4"/><path stroke-linecap="butt" transform="matrix(0, -0.75, 0.75, 0, 361.202009, 289.521891)" fill="none" stroke-linejoin="miter" d="M -0.00206195 3.501488 L 101.612526 3.501488 " stroke="#fdbc48" stroke-width="7" stroke-opacity="1" stroke-miterlimit="4"/><path stroke-linecap="round" transform="matrix(0, -0.75, 0.75, 0, 361.202009, 289.521891)" fill="none" stroke-linejoin="round" d="M 124.362528 3.501488 C 124.362528 9.298364 119.659402 14.001489 113.862527 14.001489 C 108.065652 14.001489 103.362527 9.298364 103.362527 3.501488 C 103.362527 -2.300595 108.065652 -6.998512 113.862527 -6.998512 C 119.659402 -6.998512 124.362528 -2.300595 124.362528 3.501488 " stroke="#fdbc48" stroke-width="7" stroke-opacity="1" stroke-miterlimit="4"/><g clip-path="url(#78fafc9a86)"><g clip-path="url(#cd9c937a0f)"><g transform="matrix(1, 0, 0, 1, 299, 316)"><g clip-path="url(#f0ecdda5d2)"><g clip-path="url(#4ab94ff303)"><g clip-path="url(#10e8674b66)"><path fill="#1a2628" d="M 0.566406 0.128906 L 218.539062 0.128906 L 218.539062 177.273438 L 0.566406 177.273438 Z M 0.566406 0.128906 " fill-opacity="1" fill-rule="nonzero"/></g></g></g></g></g></g></svg>